<svg width="373" height="363" viewBox="0 0 373 363" fill="none" xmlns="http://www.w3.org/2000/svg">
<g clip-path="url(#clip0_121_1063)">
<path d="M189.01 362.99H183.06C181.46 346.32 169.79 260.84 97.22 215.07C63.27 193.65 28.5 188.84 5.32 188.58L0 188.52L2.82 184.03C29.39 141.7 58.62 126.69 78.47 121.55C89.09 118.8 101.72 117.43 119.11 117.16C119.11 86.16 125.95 56.98 138.35 34.98C151.07 12.42 168.16 0 186.49 0C204.82 0 221.91 12.42 234.63 34.97C247.04 56.98 253.87 86.17 253.87 117.17C270.62 117.48 283.3 118.88 293.6 121.55C313.44 126.69 342.68 141.7 369.25 184.03L372.07 188.52L366.75 188.58C343.56 188.84 308.8 193.65 274.84 215.07C202.27 260.84 190.6 346.32 189 362.99H189.01ZM10.73 182.77C34.5 183.71 67.81 189.47 100.42 210.05C159.38 247.24 179.38 309.65 186.04 342.91C192.69 309.65 212.7 247.24 271.66 210.05C304.27 189.48 337.57 183.71 361.35 182.77C336.62 145.46 310.21 131.99 292.11 127.3C281.69 124.6 268.58 123.26 250.85 123.07L247.85 123.04L247.89 120.06C247.9 119.11 247.91 118.15 247.91 117.2C247.91 55.86 220.36 5.95 186.5 5.95C152.64 5.95 125.09 55.86 125.09 117.2C125.09 118.16 125.09 119.11 125.11 120.06L125.15 123.05L122.15 123.07C103.96 123.22 90.56 124.57 79.98 127.31C61.88 132 35.47 145.47 10.74 182.78L10.73 182.77Z" fill="#540A0B"/>
</g>
<defs>
<clipPath id="clip0_121_1063">
<rect width="372.07" height="362.99" fill="white"/>
</clipPath>
</defs>
</svg>
