<svg width="373" height="363" viewBox="0 0 373 363" fill="none" xmlns="http://www.w3.org/2000/svg">
<g clip-path="url(#clip0_121_1073)">
<path d="M189.01 362.99H183.06C181.46 346.32 169.79 260.84 97.22 215.07C63.27 193.65 28.5 188.84 5.32 188.58L0 188.52L2.82 184.03C29.39 141.7 58.62 126.69 78.47 121.55C89.09 118.8 101.72 117.43 119.11 117.16C119.11 86.16 125.95 56.98 138.35 34.98C151.07 12.42 168.16 0 186.49 0C204.82 0 221.91 12.42 234.63 34.97C247.04 56.98 253.87 86.17 253.87 117.17C270.62 117.48 283.3 118.88 293.6 121.55C313.44 126.69 342.68 141.7 369.25 184.03L372.07 188.52L366.75 188.58C343.56 188.84 308.8 193.65 274.84 215.07C202.27 260.84 190.6 346.32 189 362.99H189.01ZM10.73 182.77C34.5 183.71 67.81 189.47 100.42 210.05C159.38 247.24 179.38 309.65 186.04 342.91C192.69 309.65 212.7 247.24 271.66 210.05C304.27 189.48 337.57 183.71 361.35 182.77C336.62 145.46 310.21 131.99 292.11 127.3C281.69 124.6 268.58 123.26 250.85 123.07L247.85 123.04L247.89 120.06C247.9 119.11 247.91 118.15 247.91 117.2C247.91 55.86 220.36 5.95 186.5 5.95C152.64 5.95 125.09 55.86 125.09 117.2C125.09 118.16 125.09 119.11 125.11 120.06L125.15 123.05L122.15 123.07C103.96 123.22 90.56 124.57 79.98 127.31C61.88 132 35.47 145.47 10.74 182.78L10.73 182.77Z" fill="#540A0B"/>
<path d="M186.05 152.31C189.77 152.31 193.05 151.42 195.8 149.66C199.53 147.29 201.43 143.92 202.6 140.36C205.36 142.51 208.53 143.84 212.06 143.73C218.38 143.53 223.78 138.93 226.48 135.06C229.01 131.43 229.84 127.76 228.83 124.71C227.84 121.71 224.9 119.14 220.77 117.68C215.37 115.75 209.32 116.14 205.36 118.66C202.21 120.66 200.61 123.71 199.61 126.97C198.1 124.14 196.92 121.17 196.19 118.68C191.9 104.22 195.82 91.7003 201.27 86.2003C210.41 76.9703 226.84 80.4103 242.72 83.7403C259.22 87.1903 274.81 90.4603 283.69 80.4503C292.71 70.2703 290.52 49.4903 279.34 39.2703C275.46 35.7203 270.74 33.6203 265.82 32.5803C265.33 27.2003 265.62 22.3903 268.67 19.0803C272.42 15.0203 279.84 13.8003 290.72 15.4603L291.63 9.52034C278.65 7.55034 269.45 9.39034 264.26 15.0103C259.94 19.6903 259.31 25.6203 259.74 31.8103C254.74 31.5703 249.8 32.2203 245.55 33.3703C235.82 36.0103 228.64 41.3203 226.81 47.2203C224.57 54.4503 229.78 64.2803 237.95 68.2503C245.8 72.0703 256.29 70.2903 262.35 64.1303C269.01 57.3403 267.76 47.5903 266.59 38.9303C269.78 39.8703 272.78 41.4003 275.29 43.7003C283.97 51.6303 286.02 68.7803 279.2 76.4603C272.63 83.8703 258.7 80.9503 243.95 77.8603C227.31 74.3803 208.44 70.4303 197.01 81.9803C192.4 86.6303 189.53 93.3303 188.71 101.36C188.07 107.59 188.7 114.53 190.43 120.39C191.72 124.74 194.2 130.56 197.75 135.3C196.89 139.16 195.71 142.6 192.57 144.6C190.8 145.73 188.61 146.31 186.05 146.31C183.49 146.31 181.3 145.73 179.53 144.6C176.39 142.6 175.21 139.16 174.35 135.3C177.9 130.56 180.38 124.74 181.67 120.39C183.4 114.53 184.03 107.59 183.39 101.36C182.57 93.3303 179.7 86.6303 175.09 81.9803C163.66 70.4303 144.79 74.3803 128.15 77.8603C113.4 80.9503 99.47 83.8703 92.9 76.4603C86.08 68.7803 88.13 51.6303 96.81 43.7003C99.32 41.4003 102.32 39.8703 105.51 38.9303C104.34 47.5903 103.09 57.3403 109.75 64.1303C115.81 70.2903 126.3 72.0703 134.15 68.2503C142.32 64.2803 147.53 54.4503 145.29 47.2203C143.46 41.3203 136.28 36.0103 126.55 33.3703C122.3 32.2203 117.36 31.5703 112.36 31.8103C112.79 25.6203 112.16 19.6903 107.84 15.0103C102.65 9.39034 93.45 7.55034 80.47 9.52034L81.38 15.4603C92.26 13.8003 99.68 15.0203 103.43 19.0803C106.48 22.3903 106.77 27.2003 106.28 32.5803C101.36 33.6203 96.64 35.7203 92.76 39.2703C81.58 49.4903 79.39 70.2703 88.41 80.4503C97.29 90.4603 112.88 87.1903 129.38 83.7403C145.26 80.4103 161.69 76.9703 170.83 86.2003C176.28 91.7003 180.19 104.22 175.91 118.68C175.18 121.17 174 124.14 172.49 126.97C171.48 123.71 169.89 120.66 166.74 118.66C162.78 116.14 156.73 115.75 151.33 117.68C147.2 119.14 144.26 121.71 143.27 124.71C142.25 127.76 143.09 131.43 145.62 135.06C148.32 138.93 153.72 143.53 160.04 143.73C163.57 143.84 166.74 142.51 169.5 140.36C170.67 143.92 172.57 147.29 176.3 149.66C179.05 151.42 182.33 152.31 186.05 152.31ZM258.07 59.9203C253.87 64.1903 246.03 65.5103 240.58 62.8603C235.17 60.2303 231.19 53.3603 232.54 49.0003C233.73 45.1603 239.59 41.2103 247.12 39.1603C251.1 38.0803 255.76 37.4903 260.38 37.8403C260.46 38.3903 260.53 38.9303 260.61 39.4803C261.7 47.5503 262.74 55.1703 258.07 59.9203ZM111.48 39.4803C111.56 38.9303 111.63 38.3903 111.7 37.8403C116.33 37.4903 120.99 38.0803 124.97 39.1603C132.5 41.2103 138.36 45.1603 139.55 49.0003C140.9 53.3603 136.92 60.2303 131.51 62.8603C126.06 65.5103 118.22 64.1903 114.02 59.9203C109.35 55.1703 110.39 47.5503 111.48 39.4803ZM160.22 137.73C156.95 137.63 152.97 135.12 150.53 131.63C149.19 129.71 148.57 127.74 148.95 126.6C149.34 125.42 151.06 124.14 153.33 123.33C154.99 122.74 156.73 122.45 158.37 122.45C160.35 122.45 162.18 122.88 163.51 123.72C166.26 125.47 167.02 129.27 167.89 133.67C165.59 136.17 162.97 137.84 160.22 137.73ZM208.58 123.72C209.9 122.88 211.74 122.45 213.72 122.45C215.36 122.45 217.1 122.74 218.76 123.33C221.03 124.14 222.75 125.42 223.14 126.6C223.52 127.74 222.9 129.71 221.56 131.63C219.12 135.12 215.14 137.63 211.87 137.73C209.12 137.84 206.5 136.17 204.2 133.67C205.07 129.27 205.83 125.47 208.58 123.72Z" fill="#FF0004"/>
<path d="M186.04 210.65C182.32 210.65 179.04 211.54 176.29 213.3C172.56 215.67 170.66 219.04 169.49 222.6C166.73 220.45 163.56 219.12 160.03 219.23C153.71 219.43 148.31 224.03 145.61 227.9C143.08 231.53 142.24 235.2 143.26 238.25C144.25 241.25 147.19 243.82 151.32 245.28C156.72 247.21 162.77 246.82 166.73 244.3C169.88 242.3 171.47 239.25 172.48 235.99C173.99 238.82 175.17 241.79 175.9 244.28C180.18 258.74 176.27 271.26 170.82 276.76C161.68 285.99 145.25 282.55 129.37 279.22C112.87 275.77 97.28 272.5 88.4 282.51C79.38 292.69 81.57 313.47 92.75 323.69C96.63 327.24 101.35 329.34 106.27 330.38C106.76 335.76 106.47 340.57 103.42 343.88C99.67 347.94 92.25 349.16 81.37 347.5L80.46 353.44C93.44 355.41 102.64 353.57 107.83 347.95C112.15 343.27 112.78 337.34 112.35 331.15C117.35 331.39 122.29 330.74 126.54 329.59C136.27 326.95 143.45 321.64 145.28 315.74C147.52 308.51 142.31 298.68 134.14 294.71C126.29 290.89 115.8 292.67 109.74 298.83C103.08 305.62 104.33 315.37 105.5 324.03C102.31 323.09 99.31 321.56 96.8 319.26C88.12 311.33 86.07 294.18 92.89 286.5C99.46 279.09 113.39 282.01 128.14 285.1C144.78 288.58 163.65 292.53 175.08 280.98C179.69 276.33 182.56 269.63 183.38 261.6C184.02 255.37 183.39 248.43 181.66 242.57C180.37 238.22 177.89 232.4 174.34 227.66C175.2 223.8 176.38 220.36 179.52 218.36C181.29 217.23 183.48 216.65 186.04 216.65C188.6 216.65 190.79 217.23 192.56 218.36C195.7 220.36 196.88 223.8 197.74 227.66C194.19 232.4 191.71 238.22 190.42 242.57C188.69 248.43 188.06 255.37 188.7 261.6C189.52 269.63 192.39 276.33 197 280.98C208.43 292.53 227.3 288.58 243.94 285.1C258.69 282.01 272.62 279.09 279.19 286.5C286.01 294.18 283.96 311.33 275.28 319.26C272.77 321.56 269.77 323.09 266.58 324.03C267.75 315.37 269 305.62 262.34 298.83C256.28 292.67 245.79 290.89 237.94 294.71C229.77 298.68 224.56 308.51 226.8 315.74C228.63 321.64 235.81 326.95 245.54 329.59C249.79 330.74 254.73 331.39 259.73 331.15C259.3 337.34 259.93 343.27 264.25 347.95C269.44 353.57 278.64 355.41 291.62 353.44L290.71 347.5C279.83 349.16 272.41 347.94 268.66 343.88C265.61 340.57 265.32 335.76 265.81 330.38C270.73 329.34 275.45 327.24 279.33 323.69C290.51 313.47 292.7 292.69 283.68 282.51C274.8 272.5 259.21 275.77 242.71 279.22C226.83 282.55 210.4 285.99 201.26 276.76C195.81 271.26 191.89 258.74 196.18 244.28C196.91 241.79 198.09 238.82 199.6 235.99C200.6 239.25 202.2 242.3 205.35 244.3C209.31 246.82 215.36 247.21 220.76 245.28C224.89 243.82 227.83 241.25 228.82 238.25C229.83 235.2 229 231.53 226.47 227.9C223.77 224.03 218.37 219.43 212.05 219.23C208.52 219.12 205.35 220.45 202.59 222.6C201.42 219.04 199.52 215.67 195.79 213.3C193.04 211.54 189.76 210.65 186.04 210.65ZM260.61 323.48C260.53 324.03 260.46 324.57 260.38 325.12C255.76 325.47 251.1 324.88 247.12 323.8C239.59 321.75 233.73 317.8 232.54 313.96C231.19 309.6 235.17 302.73 240.58 300.1C246.03 297.45 253.87 298.77 258.07 303.04C262.74 307.79 261.7 315.41 260.61 323.48ZM114.02 303.04C118.22 298.77 126.06 297.45 131.51 300.1C136.92 302.73 140.9 309.6 139.55 313.96C138.36 317.8 132.5 321.75 124.97 323.8C120.99 324.88 116.33 325.47 111.7 325.12C111.63 324.57 111.56 324.03 111.48 323.48C110.39 315.41 109.35 307.79 114.02 303.04ZM167.89 229.29C167.02 233.69 166.26 237.49 163.51 239.24C162.18 240.08 160.35 240.51 158.37 240.51C156.73 240.51 154.99 240.22 153.33 239.63C151.06 238.82 149.34 237.54 148.95 236.36C148.57 235.22 149.19 233.25 150.53 231.33C152.97 227.84 156.95 225.33 160.22 225.23C162.97 225.12 165.59 226.79 167.89 229.29ZM204.2 229.29C206.5 226.79 209.12 225.12 211.87 225.23C215.14 225.33 219.12 227.84 221.56 231.33C222.9 233.25 223.52 235.22 223.14 236.36C222.75 237.54 221.03 238.82 218.76 239.63C217.1 240.22 215.36 240.51 213.72 240.51C211.74 240.51 209.9 240.08 208.58 239.24C205.83 237.49 205.07 233.69 204.2 229.29Z" fill="#FF0004"/>
<path d="M248.305 189.886C241.385 188.146 233.635 189.406 227.715 193.076C225.725 188.196 225.495 183.416 225.495 181.496C225.495 179.576 225.725 174.796 227.715 169.916C233.635 173.586 241.385 174.846 248.305 173.106C255.945 171.186 265.745 164.596 264.375 158.216C264.095 156.896 263.185 154.996 260.455 153.406C255.295 150.396 246.015 149.806 238.865 152.036C235.685 153.036 232.665 154.636 230.145 156.686C228.665 157.876 227.395 159.176 226.305 160.546C225.505 159.386 224.965 158.216 224.395 157.016C223.175 154.386 221.785 151.416 217.815 149.596C211.425 146.676 201.815 148.056 197.685 154.766C196.545 156.606 195.855 158.836 195.645 161.136C195.505 161.346 195.365 161.546 195.225 161.746C193.875 163.716 192.585 165.586 190.115 166.586C188.875 167.096 187.515 167.356 186.065 167.366H186.035C184.585 167.356 183.225 167.096 181.985 166.586C179.515 165.586 178.225 163.716 176.875 161.746C176.735 161.546 176.595 161.346 176.455 161.136C176.245 158.836 175.555 156.606 174.415 154.766C170.285 148.056 160.675 146.676 154.285 149.596C150.315 151.416 148.925 154.386 147.705 157.016C147.135 158.216 146.595 159.386 145.795 160.546C144.705 159.176 143.435 157.876 141.955 156.686C139.435 154.636 136.415 153.036 133.235 152.036C126.085 149.806 116.805 150.396 111.645 153.406C108.915 154.996 108.005 156.896 107.725 158.216C106.355 164.596 116.155 171.186 123.795 173.106C130.715 174.846 138.465 173.586 144.385 169.916C146.375 174.796 146.605 179.576 146.605 181.496C146.605 183.416 146.375 188.196 144.385 193.076C138.465 189.406 130.715 188.146 123.795 189.886C116.155 191.806 106.355 198.396 107.725 204.776C108.005 206.096 108.915 207.996 111.645 209.586C116.805 212.596 126.085 213.186 133.235 210.956C136.415 209.956 139.435 208.356 141.955 206.306C143.435 205.116 144.705 203.816 145.795 202.446C146.595 203.606 147.135 204.776 147.705 205.976C148.925 208.606 150.315 211.576 154.285 213.396C160.675 216.316 170.285 214.936 174.415 208.226C175.555 206.386 176.245 204.156 176.455 201.856C176.595 201.646 176.735 201.446 176.875 201.246C178.225 199.276 179.515 197.406 181.985 196.406C183.225 195.896 184.585 195.636 186.035 195.626H186.065C187.515 195.626 188.875 195.896 190.115 196.406C192.585 197.406 193.875 199.276 195.225 201.246C195.365 201.446 195.505 201.646 195.645 201.856C195.855 204.156 196.545 206.386 197.685 208.226C201.815 214.936 211.425 216.316 217.815 213.396C221.785 211.576 223.175 208.606 224.395 205.976C224.965 204.776 225.505 203.606 226.305 202.446C227.395 203.816 228.665 205.116 230.145 206.306C232.665 208.356 235.685 209.956 238.865 210.956C246.015 213.186 255.295 212.596 260.455 209.586C263.185 207.996 264.095 206.096 264.375 204.776C265.745 198.396 255.945 191.806 248.305 189.886ZM233.915 161.346C235.275 160.246 237.535 158.736 240.655 157.766C243.205 156.966 245.795 156.656 248.185 156.656C253.615 156.656 258.025 158.266 258.515 159.506C258.535 160.866 253.525 165.616 246.845 167.286C241.375 168.666 235.245 167.646 230.675 164.696C231.585 163.496 232.655 162.366 233.915 161.346ZM125.255 167.286C118.575 165.616 113.565 160.856 113.585 159.506C114.075 158.266 118.485 156.656 123.915 156.656C126.305 156.656 128.895 156.966 131.445 157.766C134.565 158.736 136.825 160.246 138.185 161.346C139.435 162.366 140.515 163.496 141.425 164.696C136.855 167.646 130.725 168.666 125.255 167.286ZM138.185 201.646C136.825 202.746 134.565 204.256 131.445 205.226C128.895 206.026 126.305 206.336 123.915 206.336C118.485 206.336 114.075 204.726 113.585 203.486C113.565 202.136 118.575 197.376 125.255 195.706C130.725 194.326 136.855 195.346 141.425 198.296C140.515 199.496 139.435 200.626 138.185 201.646ZM202.815 162.446C202.945 162.446 203.075 162.446 203.205 162.446C206.195 162.446 209.195 164.656 209.355 165.606C209.305 165.736 208.725 166.546 207.335 167.226C205.975 167.906 204.485 168.106 203.635 167.736C202.955 167.446 202.355 166.596 201.985 165.396C201.765 164.716 201.645 163.976 201.595 163.226C202.045 162.726 202.415 162.486 202.815 162.456V162.446ZM169.285 162.446C169.685 162.476 170.055 162.716 170.505 163.216C170.455 163.966 170.335 164.706 170.115 165.386C169.745 166.586 169.145 167.436 168.465 167.726C167.615 168.096 166.125 167.896 164.765 167.216C163.375 166.536 162.795 165.726 162.745 165.596C162.905 164.646 165.905 162.436 168.895 162.436C169.025 162.436 169.155 162.436 169.285 162.436V162.446ZM169.285 200.546C169.155 200.546 169.025 200.556 168.895 200.556C165.905 200.556 162.905 198.346 162.745 197.396C162.795 197.266 163.375 196.456 164.765 195.776C166.125 195.096 167.615 194.896 168.465 195.266C169.145 195.556 169.745 196.406 170.115 197.606C170.335 198.286 170.455 199.026 170.505 199.776C170.055 200.276 169.685 200.516 169.285 200.546ZM202.815 200.546C202.415 200.516 202.045 200.276 201.595 199.776C201.645 199.026 201.765 198.286 201.985 197.606C202.355 196.406 202.955 195.556 203.635 195.266C204.485 194.896 205.975 195.096 207.335 195.776C208.725 196.456 209.305 197.266 209.355 197.396C209.195 198.346 206.195 200.556 203.205 200.556C203.075 200.556 202.945 200.546 202.815 200.546ZM222.935 197.046C220.885 199.326 219.835 201.566 218.965 203.446C217.795 205.936 217.205 207.076 215.325 207.936C211.995 209.466 206.875 209.046 204.015 206.526C207.265 206.296 210.705 204.796 212.965 202.546C214.645 200.866 215.465 198.966 215.345 197.066C215.195 194.766 213.625 192.546 211.025 190.956C208.505 189.426 204.615 188.296 201.245 189.766C199.475 190.536 198.015 191.976 197.025 193.916C196.285 193.196 195.435 192.496 194.435 191.886C194.435 191.886 193.465 191.296 192.365 190.846C188.785 189.396 183.315 189.396 179.735 190.846C178.635 191.296 177.665 191.886 177.655 191.886C176.655 192.496 175.805 193.186 175.075 193.916C174.085 191.976 172.625 190.536 170.855 189.766C167.485 188.296 163.595 189.426 161.075 190.956C158.475 192.546 156.905 194.766 156.755 197.066C156.635 198.966 157.455 200.866 159.135 202.546C161.395 204.796 164.835 206.296 168.085 206.526C165.225 209.046 160.105 209.466 156.775 207.936C154.895 207.076 154.305 205.936 153.135 203.446C152.265 201.566 151.215 199.326 149.165 197.046C152.265 190.576 152.605 184.016 152.605 181.496C152.605 178.976 152.265 172.416 149.165 165.946C151.215 163.666 152.265 161.426 153.135 159.546C154.305 157.056 154.895 155.916 156.775 155.056C160.105 153.526 165.225 153.946 168.085 156.466C164.835 156.696 161.395 158.196 159.135 160.446C157.455 162.126 156.635 164.026 156.755 165.926C156.905 168.226 158.475 170.446 161.075 172.036C163.595 173.566 167.485 174.696 170.855 173.226C172.625 172.456 174.085 171.016 175.075 169.076C175.815 169.796 176.665 170.496 177.655 171.106C177.655 171.106 178.625 171.696 179.735 172.146C183.315 173.596 188.785 173.596 192.365 172.146C193.465 171.696 194.435 171.106 194.435 171.106C195.435 170.496 196.285 169.796 197.025 169.076C198.015 171.016 199.475 172.456 201.245 173.226C204.615 174.696 208.505 173.566 211.025 172.036C213.625 170.446 215.195 168.226 215.345 165.926C215.465 164.026 214.645 162.126 212.965 160.446C210.705 158.196 207.265 156.696 204.015 156.466C206.875 153.946 211.995 153.526 215.325 155.056C217.205 155.916 217.795 157.056 218.965 159.546C219.835 161.426 220.885 163.666 222.935 165.946C219.835 172.416 219.495 178.976 219.495 181.496C219.495 184.016 219.835 190.576 222.935 197.046ZM248.185 206.336C245.795 206.336 243.205 206.026 240.655 205.226C237.535 204.256 235.275 202.746 233.915 201.646C232.655 200.626 231.585 199.496 230.675 198.296C235.245 195.346 241.375 194.326 246.845 195.706C253.525 197.376 258.535 202.126 258.515 203.486C258.025 204.726 253.615 206.336 248.185 206.336Z" fill="#FF0004"/>
</g>
<defs>
<clipPath id="clip0_121_1073">
<rect width="372.07" height="362.99" fill="white"/>
</clipPath>
</defs>
</svg>
