<svg width="373" height="363" viewBox="0 0 373 363" fill="none" xmlns="http://www.w3.org/2000/svg">
<g clip-path="url(#clip0_121_1082)">
<path d="M189.01 362.99H183.06C181.46 346.32 169.79 260.84 97.22 215.07C63.27 193.65 28.5 188.84 5.32 188.58L0 188.52L2.82 184.03C29.39 141.7 58.62 126.69 78.47 121.55C89.09 118.8 101.72 117.43 119.11 117.16C119.11 86.16 125.95 56.98 138.35 34.98C151.07 12.42 168.16 0 186.49 0C204.82 0 221.91 12.42 234.63 34.97C247.04 56.98 253.87 86.17 253.87 117.17C270.62 117.48 283.3 118.88 293.6 121.55C313.44 126.69 342.68 141.7 369.25 184.03L372.07 188.52L366.75 188.58C343.56 188.84 308.8 193.65 274.84 215.07C202.27 260.84 190.6 346.32 189 362.99H189.01ZM10.73 182.77C34.5 183.71 67.81 189.47 100.42 210.05C159.38 247.24 179.38 309.65 186.04 342.91C192.69 309.65 212.7 247.24 271.66 210.05C304.27 189.48 337.57 183.71 361.35 182.77C336.62 145.46 310.21 131.99 292.11 127.3C281.69 124.6 268.58 123.26 250.85 123.07L247.85 123.04L247.89 120.06C247.9 119.11 247.91 118.15 247.91 117.2C247.91 55.86 220.36 5.95 186.5 5.95C152.64 5.95 125.09 55.86 125.09 117.2C125.09 118.16 125.09 119.11 125.11 120.06L125.15 123.05L122.15 123.07C103.96 123.22 90.56 124.57 79.98 127.31C61.88 132 35.47 145.47 10.74 182.78L10.73 182.77Z" fill="#540A0B"/>
<path d="M186.05 152.309C189.77 152.309 193.05 151.419 195.8 149.659C199.53 147.289 201.43 143.919 202.6 140.359C205.36 142.509 208.53 143.839 212.06 143.729C218.38 143.529 223.78 138.929 226.48 135.059C229.01 131.429 229.84 127.759 228.83 124.709C227.84 121.709 224.9 119.139 220.77 117.679C215.37 115.749 209.32 116.139 205.36 118.659C202.21 120.659 200.61 123.709 199.61 126.969C198.1 124.139 196.92 121.169 196.19 118.679C191.9 104.219 195.82 91.6994 201.27 86.1994C210.41 76.9694 226.84 80.4094 242.72 83.7394C259.22 87.1894 274.81 90.4594 283.69 80.4494C292.71 70.2694 290.52 49.4894 279.34 39.2694C275.46 35.7194 270.74 33.6194 265.82 32.5794C265.33 27.1994 265.62 22.3894 268.67 19.0794C272.42 15.0194 279.84 13.7994 290.72 15.4594L291.63 9.51936C278.65 7.54936 269.45 9.38936 264.26 15.0094C259.94 19.6894 259.31 25.6194 259.74 31.8094C254.74 31.5694 249.8 32.2194 245.55 33.3694C235.82 36.0094 228.64 41.3194 226.81 47.2194C224.57 54.4494 229.78 64.2794 237.95 68.2494C245.8 72.0694 256.29 70.2894 262.35 64.1294C269.01 57.3394 267.76 47.5894 266.59 38.9294C269.78 39.8694 272.78 41.3994 275.29 43.6994C283.97 51.6294 286.02 68.7794 279.2 76.4594C272.63 83.8694 258.7 80.9494 243.95 77.8594C227.31 74.3794 208.44 70.4294 197.01 81.9794C192.4 86.6294 189.53 93.3294 188.71 101.359C188.07 107.589 188.7 114.529 190.43 120.389C191.72 124.739 194.2 130.559 197.75 135.299C196.89 139.159 195.71 142.599 192.57 144.599C190.8 145.729 188.61 146.309 186.05 146.309C183.49 146.309 181.3 145.729 179.53 144.599C176.39 142.599 175.21 139.159 174.35 135.299C177.9 130.559 180.38 124.739 181.67 120.389C183.4 114.529 184.03 107.589 183.39 101.359C182.57 93.3294 179.7 86.6294 175.09 81.9794C163.66 70.4294 144.79 74.3794 128.15 77.8594C113.4 80.9494 99.4702 83.8694 92.9002 76.4594C86.0802 68.7794 88.1302 51.6294 96.8102 43.6994C99.3202 41.3994 102.32 39.8694 105.51 38.9294C104.34 47.5894 103.09 57.3394 109.75 64.1294C115.81 70.2894 126.3 72.0694 134.15 68.2494C142.32 64.2794 147.53 54.4494 145.29 47.2194C143.46 41.3194 136.28 36.0094 126.55 33.3694C122.3 32.2194 117.36 31.5694 112.36 31.8094C112.79 25.6194 112.16 19.6894 107.84 15.0094C102.65 9.38936 93.4502 7.54936 80.4702 9.51936L81.3802 15.4594C92.2602 13.7994 99.6802 15.0194 103.43 19.0794C106.48 22.3894 106.77 27.1994 106.28 32.5794C101.36 33.6194 96.6402 35.7194 92.7602 39.2694C81.5802 49.4894 79.3902 70.2694 88.4102 80.4494C97.2902 90.4594 112.88 87.1894 129.38 83.7394C145.26 80.4094 161.69 76.9694 170.83 86.1994C176.28 91.6994 180.19 104.219 175.91 118.679C175.18 121.169 174 124.139 172.49 126.969C171.48 123.709 169.89 120.659 166.74 118.659C162.78 116.139 156.73 115.749 151.33 117.679C147.2 119.139 144.26 121.709 143.27 124.709C142.25 127.759 143.09 131.429 145.62 135.059C148.32 138.929 153.72 143.529 160.04 143.729C163.57 143.839 166.74 142.509 169.5 140.359C170.67 143.919 172.57 147.289 176.3 149.659C179.05 151.419 182.33 152.309 186.05 152.309ZM258.07 59.9194C253.87 64.1894 246.03 65.5094 240.58 62.8594C235.17 60.2294 231.19 53.3594 232.54 48.9994C233.73 45.1594 239.59 41.2094 247.12 39.1594C251.1 38.0794 255.76 37.4894 260.38 37.8394C260.46 38.3894 260.53 38.9294 260.61 39.4794C261.7 47.5494 262.74 55.1694 258.07 59.9194ZM111.48 39.4794C111.56 38.9294 111.63 38.3894 111.7 37.8394C116.33 37.4894 120.99 38.0794 124.97 39.1594C132.5 41.2094 138.36 45.1594 139.55 48.9994C140.9 53.3594 136.92 60.2294 131.51 62.8594C126.06 65.5094 118.22 64.1894 114.02 59.9194C109.35 55.1694 110.39 47.5494 111.48 39.4794ZM160.22 137.729C156.95 137.629 152.97 135.119 150.53 131.629C149.19 129.709 148.57 127.739 148.95 126.599C149.34 125.419 151.06 124.139 153.33 123.329C154.99 122.739 156.73 122.449 158.37 122.449C160.35 122.449 162.18 122.879 163.51 123.719C166.26 125.469 167.02 129.269 167.89 133.669C165.59 136.169 162.97 137.839 160.22 137.729ZM208.58 123.719C209.9 122.879 211.74 122.449 213.72 122.449C215.36 122.449 217.1 122.739 218.76 123.329C221.03 124.139 222.75 125.419 223.14 126.599C223.52 127.739 222.9 129.709 221.56 131.629C219.12 135.119 215.14 137.629 211.87 137.729C209.12 137.839 206.5 136.169 204.2 133.669C205.07 129.269 205.83 125.469 208.58 123.719Z" fill="#FF0004"/>
<path d="M186.04 210.649C182.32 210.649 179.04 211.539 176.29 213.299C172.56 215.669 170.66 219.039 169.49 222.599C166.73 220.449 163.56 219.119 160.03 219.229C153.71 219.429 148.31 224.029 145.61 227.899C143.08 231.529 142.24 235.199 143.26 238.249C144.25 241.249 147.19 243.819 151.32 245.279C156.72 247.209 162.77 246.819 166.73 244.299C169.88 242.299 171.47 239.249 172.48 235.989C173.99 238.819 175.17 241.789 175.9 244.279C180.18 258.739 176.27 271.259 170.82 276.759C161.68 285.989 145.25 282.549 129.37 279.219C112.87 275.769 97.28 272.499 88.4 282.509C79.38 292.689 81.57 313.469 92.75 323.689C96.63 327.239 101.35 329.339 106.27 330.379C106.76 335.759 106.47 340.569 103.42 343.879C99.67 347.939 92.25 349.159 81.37 347.499L80.46 353.439C93.44 355.409 102.64 353.569 107.83 347.949C112.15 343.269 112.78 337.339 112.35 331.149C117.35 331.389 122.29 330.739 126.54 329.589C136.27 326.949 143.45 321.639 145.28 315.739C147.52 308.509 142.31 298.679 134.14 294.709C126.29 290.889 115.8 292.669 109.74 298.829C103.08 305.619 104.33 315.369 105.5 324.029C102.31 323.089 99.31 321.559 96.8 319.259C88.12 311.329 86.07 294.179 92.89 286.499C99.46 279.089 113.39 282.009 128.14 285.099C144.78 288.579 163.65 292.529 175.08 280.979C179.69 276.329 182.56 269.629 183.38 261.599C184.02 255.369 183.39 248.429 181.66 242.569C180.37 238.219 177.89 232.399 174.34 227.659C175.2 223.799 176.38 220.359 179.52 218.359C181.29 217.229 183.48 216.649 186.04 216.649C188.6 216.649 190.79 217.229 192.56 218.359C195.7 220.359 196.88 223.799 197.74 227.659C194.19 232.399 191.71 238.219 190.42 242.569C188.69 248.429 188.06 255.369 188.7 261.599C189.52 269.629 192.39 276.329 197 280.979C208.43 292.529 227.3 288.579 243.94 285.099C258.69 282.009 272.62 279.089 279.19 286.499C286.01 294.179 283.96 311.329 275.28 319.259C272.77 321.559 269.77 323.089 266.58 324.029C267.75 315.369 269 305.619 262.34 298.829C256.28 292.669 245.79 290.889 237.94 294.709C229.77 298.679 224.56 308.509 226.8 315.739C228.63 321.639 235.81 326.949 245.54 329.589C249.79 330.739 254.73 331.389 259.73 331.149C259.3 337.339 259.93 343.269 264.25 347.949C269.44 353.569 278.64 355.409 291.62 353.439L290.71 347.499C279.83 349.159 272.41 347.939 268.66 343.879C265.61 340.569 265.32 335.759 265.81 330.379C270.73 329.339 275.45 327.239 279.33 323.689C290.51 313.469 292.7 292.689 283.68 282.509C274.8 272.499 259.21 275.769 242.71 279.219C226.83 282.549 210.4 285.989 201.26 276.759C195.81 271.259 191.89 258.739 196.18 244.279C196.91 241.789 198.09 238.819 199.6 235.989C200.6 239.249 202.2 242.299 205.35 244.299C209.31 246.819 215.36 247.209 220.76 245.279C224.89 243.819 227.83 241.249 228.82 238.249C229.83 235.199 229 231.529 226.47 227.899C223.77 224.029 218.37 219.429 212.05 219.229C208.52 219.119 205.35 220.449 202.59 222.599C201.42 219.039 199.52 215.669 195.79 213.299C193.04 211.539 189.76 210.649 186.04 210.649ZM260.61 323.479C260.53 324.029 260.46 324.569 260.38 325.119C255.76 325.469 251.1 324.879 247.12 323.799C239.59 321.749 233.73 317.799 232.54 313.959C231.19 309.599 235.17 302.729 240.58 300.099C246.03 297.449 253.87 298.769 258.07 303.039C262.74 307.789 261.7 315.409 260.61 323.479ZM114.02 303.039C118.22 298.769 126.06 297.449 131.51 300.099C136.92 302.729 140.9 309.599 139.55 313.959C138.36 317.799 132.5 321.749 124.97 323.799C120.99 324.879 116.33 325.469 111.7 325.119C111.63 324.569 111.56 324.029 111.48 323.479C110.39 315.409 109.35 307.789 114.02 303.039ZM167.89 229.289C167.02 233.689 166.26 237.489 163.51 239.239C162.18 240.079 160.35 240.509 158.37 240.509C156.73 240.509 154.99 240.219 153.33 239.629C151.06 238.819 149.34 237.539 148.95 236.359C148.57 235.219 149.19 233.249 150.53 231.329C152.97 227.839 156.95 225.329 160.22 225.229C162.97 225.119 165.59 226.789 167.89 229.289ZM204.2 229.289C206.5 226.789 209.12 225.119 211.87 225.229C215.14 225.329 219.12 227.839 221.56 231.329C222.9 233.249 223.52 235.219 223.14 236.359C222.75 237.539 221.03 238.819 218.76 239.629C217.1 240.219 215.36 240.509 213.72 240.509C211.74 240.509 209.9 240.079 208.58 239.239C205.83 237.489 205.07 233.689 204.2 229.289Z" fill="#FF0004"/>
<path d="M356.92 227.47C355.2 219.83 347.94 206.81 335 202.26C330.07 200.53 324.14 200.12 318.82 200.97C317.08 193.22 317.32 184.66 322.43 180.89C325.29 178.78 333.5 179.12 338.7 181.55C340.87 182.57 341.9 183.7 341.93 184.31L347.92 183.96C347.79 181.75 346.53 178.59 341.24 176.12C334.62 173.01 324.05 172.25 318.87 176.06C311.18 181.73 310.82 192.94 313.02 202.53C309.19 204.05 306.23 206.44 305.1 209.66C303.44 214.38 306.43 218.41 309.07 221.97C311.58 225.36 313.95 228.56 313.21 232.29C312.15 237.64 305.61 242.36 299.51 242.27C299.16 242.27 298.83 242.24 298.5 242.21C299.56 240.2 300.39 238.1 300.95 236.15C302.95 229.23 302.34 223.3 299.32 220.28C297.01 217.98 293.02 217.07 288.63 217.86C284.16 218.66 280.65 220.94 279.25 223.98C277.68 227.39 278.54 232.31 281.56 237.15C283.24 239.83 285.73 242.63 288.84 244.75C288.27 245.13 287.69 245.4 287.12 245.52C283.2 246.4 278.12 240.19 273.21 234.18C266.26 225.66 258.38 216.02 247.67 217.21C240.28 218.04 233.26 224.03 232.32 230.29C231.42 236.34 235.96 240.48 240.34 244.49C244.43 248.22 248.66 252.09 248.92 257.54C248.96 258.38 248.91 259.26 248.77 260.15C246.92 258.3 244.69 256.98 242.03 256.91C239.62 256.84 237.03 257.81 234.93 259.57C232.63 261.48 231.27 264.09 231.21 266.72C231.14 269.23 232.19 271.73 234.16 273.76C236.13 275.77 238.74 276.98 241.15 276.98H241.16C243.78 276.98 246.45 275.64 248.88 273.1C249 272.98 249.11 272.86 249.22 272.74C249.34 273.08 249.45 273.43 249.56 273.77C253.24 285.42 248.97 303.28 236.95 310.29C230.59 314.01 223.04 309.06 212.26 301.08C203.86 294.87 195.19 288.45 186.05 288.45C176.9 288.45 168.23 294.87 159.84 301.08C149.06 309.06 141.51 314.01 135.14 310.29C123.13 303.28 118.86 285.41 122.54 273.77C122.65 273.42 122.76 273.08 122.88 272.73C122.99 272.85 123.11 272.97 123.22 273.09C125.65 275.64 128.32 276.98 130.94 276.98H130.95C133.36 276.98 135.97 275.77 137.94 273.75C139.91 271.73 140.96 269.23 140.89 266.72C140.83 264.08 139.47 261.48 137.17 259.56C135.07 257.81 132.48 256.84 130.07 256.91C127.42 256.98 125.18 258.29 123.33 260.14C123.19 259.25 123.14 258.37 123.18 257.54C123.44 252.09 127.67 248.22 131.76 244.48C136.14 240.48 140.68 236.34 139.78 230.29C138.85 224.03 131.82 218.04 124.43 217.21C113.72 216.01 105.84 225.66 98.8898 234.18C93.9798 240.19 88.8998 246.4 84.9798 245.52C84.4098 245.39 83.8298 245.13 83.2598 244.74C86.3698 242.62 88.8598 239.83 90.5398 237.14C93.5598 232.31 94.4198 227.39 92.8498 223.97C91.4498 220.94 87.9498 218.65 83.4698 217.85C79.0898 217.07 75.0898 217.97 72.7898 220.28C69.7598 223.3 69.1498 229.23 71.1498 236.14C71.7198 238.09 72.5398 240.19 73.6098 242.2C73.2698 242.24 72.9398 242.26 72.5998 242.27C66.4898 242.36 59.9498 237.64 58.8898 232.29C58.1498 228.56 60.5198 225.36 63.0398 221.97C65.6698 218.41 68.6698 214.37 67.0098 209.66C65.8698 206.43 62.9098 204.05 59.0798 202.53C61.2798 192.94 60.9298 181.72 53.2298 176.05C48.0598 172.24 37.4798 173.01 30.8598 176.11C25.5798 178.59 24.3098 181.74 24.1798 183.95L30.1698 184.31C30.2098 183.69 31.2298 182.56 33.4098 181.54C38.5998 179.11 46.8098 178.78 49.6698 180.89C54.7898 184.65 55.0198 193.22 53.2798 200.97C47.9698 200.11 42.0298 200.52 37.1098 202.25C24.1598 206.8 16.8998 219.82 15.1798 227.47C14.2398 231.63 14.7198 234.8 16.5598 236.62C18.2198 238.26 20.8598 238.76 24.3898 238.12C33.0298 236.53 49.0298 227.1 55.9498 211.9C56.4498 210.79 56.9398 209.6 57.3898 208.33C59.4698 209.25 60.9098 210.42 61.3498 211.65C61.9098 213.24 60.5398 215.26 58.2198 218.4C55.3398 222.28 51.7498 227.12 53.0098 233.45C54.6298 241.67 63.6898 248.49 72.7198 248.27C74.3398 248.23 75.8998 247.98 77.3698 247.55C79.1598 249.43 81.2698 250.84 83.6598 251.38C91.2098 253.07 97.1998 245.74 103.54 237.97C109.81 230.28 116.3 222.34 123.76 223.17C128.41 223.69 133.31 227.58 133.84 231.17C134.24 233.87 131.79 236.32 127.71 240.05C123.19 244.18 117.56 249.33 117.18 257.25C117.04 260.29 117.7 263.55 118.98 266.55C117.89 268.76 117.18 270.8 116.82 271.96C112.36 286.06 117.45 306.91 132.12 315.47C134.65 316.95 137.2 317.58 139.77 317.58C147.63 317.58 155.62 311.67 163.41 305.91C171.02 300.27 178.88 294.46 186.05 294.45C193.22 294.46 201.08 300.28 208.69 305.91C216.48 311.67 224.47 317.58 232.33 317.58C234.9 317.58 237.45 316.95 239.98 315.48C254.65 306.91 259.74 286.06 255.28 271.96C254.92 270.8 254.21 268.77 253.12 266.56C254.4 263.56 255.06 260.3 254.92 257.25C254.54 249.33 248.91 244.19 244.39 240.06C240.31 236.33 237.86 233.87 238.26 231.17C238.79 227.58 243.69 223.7 248.34 223.17C255.8 222.34 262.29 230.29 268.56 237.97C274.9 245.74 280.89 253.07 288.44 251.38C290.83 250.84 292.94 249.43 294.73 247.56C296.2 247.98 297.76 248.24 299.38 248.27C308.41 248.49 317.47 241.68 319.1 233.46C320.35 227.13 316.77 222.29 313.89 218.4C311.56 215.27 310.2 213.25 310.76 211.65C311.19 210.42 312.64 209.25 314.71 208.34C315.16 209.6 315.65 210.8 316.15 211.9C323.08 227.11 339.08 236.54 347.71 238.12C351.25 238.77 353.88 238.27 355.54 236.63C357.38 234.81 357.86 231.64 356.92 227.47ZM244.54 268.95C243.33 270.22 242.06 270.98 241.16 270.98C240.5 270.98 239.41 270.55 238.46 269.57C237.64 268.73 237.18 267.74 237.2 266.87C237.23 265.97 237.8 264.98 238.77 264.18C239.72 263.38 240.92 262.89 241.87 262.91C243.34 262.95 244.92 264.45 246.32 266.64C245.79 267.49 245.19 268.27 244.54 268.95ZM130.22 262.91C131.17 262.88 132.37 263.38 133.33 264.17C134.29 264.98 134.86 265.96 134.89 266.87C134.91 267.74 134.45 268.72 133.63 269.57C132.68 270.54 131.59 270.98 130.93 270.98C130.03 270.98 128.76 270.22 127.55 268.95C126.9 268.27 126.3 267.49 125.77 266.64C127.17 264.45 128.75 262.94 130.22 262.91ZM50.4798 209.41C45.4498 220.45 34.3998 228.55 26.2598 231.4C23.0998 232.51 21.3698 232.46 20.8098 232.32C20.6298 231.7 20.4898 229.58 21.9698 225.7C24.3798 219.42 30.2998 211 39.0798 207.91C43.2498 206.45 47.7198 206.23 51.5598 206.77C51.2198 207.69 50.8598 208.58 50.4798 209.41ZM79.3098 240.17C78.3498 238.51 77.5098 236.56 76.8998 234.47C75.4698 229.51 75.8898 225.65 77.0098 224.52C77.5298 224.01 78.7498 223.58 80.4198 223.58C81.0298 223.58 81.6898 223.63 82.4098 223.76C85.0698 224.24 86.9298 225.49 87.3898 226.49C87.9698 227.73 87.4798 230.7 85.4398 233.96C84.0398 236.2 81.9298 238.54 79.3098 240.17ZM295.19 234.48C294.58 236.56 293.75 238.51 292.78 240.17C290.17 238.55 288.05 236.21 286.65 233.96C284.61 230.7 284.13 227.74 284.7 226.49C285.16 225.5 287.02 224.24 289.69 223.76C290.4 223.64 291.07 223.58 291.67 223.58C293.35 223.58 294.56 224.01 295.08 224.53C296.2 225.65 296.62 229.52 295.19 234.48ZM351.29 232.32C350.72 232.47 348.99 232.52 345.83 231.41C337.69 228.55 326.64 220.45 321.61 209.42C321.23 208.58 320.87 207.7 320.53 206.77C324.37 206.24 328.85 206.46 333.01 207.92C341.79 211.01 347.72 219.43 350.12 225.7C351.61 229.59 351.46 231.71 351.29 232.32Z" fill="#FF0004"/>
<path d="M248.305 189.885C241.385 188.145 233.635 189.405 227.715 193.075C225.725 188.195 225.495 183.415 225.495 181.495C225.495 179.575 225.725 174.795 227.715 169.915C233.635 173.585 241.385 174.845 248.305 173.105C255.945 171.185 265.745 164.595 264.375 158.215C264.095 156.895 263.185 154.995 260.455 153.405C255.295 150.395 246.015 149.805 238.865 152.035C235.685 153.035 232.665 154.635 230.145 156.685C228.665 157.875 227.395 159.175 226.305 160.545C225.505 159.385 224.965 158.215 224.395 157.015C223.175 154.385 221.785 151.415 217.815 149.595C211.425 146.675 201.815 148.055 197.685 154.765C196.545 156.605 195.855 158.835 195.645 161.135C195.505 161.345 195.365 161.545 195.225 161.745C193.875 163.715 192.585 165.585 190.115 166.585C188.875 167.095 187.515 167.355 186.065 167.365H186.035C184.585 167.355 183.225 167.095 181.985 166.585C179.515 165.585 178.225 163.715 176.875 161.745C176.735 161.545 176.595 161.345 176.455 161.135C176.245 158.835 175.555 156.605 174.415 154.765C170.285 148.055 160.675 146.675 154.285 149.595C150.315 151.415 148.925 154.385 147.705 157.015C147.135 158.215 146.595 159.385 145.795 160.545C144.705 159.175 143.435 157.875 141.955 156.685C139.435 154.635 136.415 153.035 133.235 152.035C126.085 149.805 116.805 150.395 111.645 153.405C108.915 154.995 108.005 156.895 107.725 158.215C106.355 164.595 116.155 171.185 123.795 173.105C130.715 174.845 138.465 173.585 144.385 169.915C146.375 174.795 146.605 179.575 146.605 181.495C146.605 183.415 146.375 188.195 144.385 193.075C138.465 189.405 130.715 188.145 123.795 189.885C116.155 191.805 106.355 198.395 107.725 204.775C108.005 206.095 108.915 207.995 111.645 209.585C116.805 212.595 126.085 213.185 133.235 210.955C136.415 209.955 139.435 208.355 141.955 206.305C143.435 205.115 144.705 203.815 145.795 202.445C146.595 203.605 147.135 204.775 147.705 205.975C148.925 208.605 150.315 211.575 154.285 213.395C160.675 216.315 170.285 214.935 174.415 208.225C175.555 206.385 176.245 204.155 176.455 201.855C176.595 201.645 176.735 201.445 176.875 201.245C178.225 199.275 179.515 197.405 181.985 196.405C183.225 195.895 184.585 195.635 186.035 195.625H186.065C187.515 195.625 188.875 195.895 190.115 196.405C192.585 197.405 193.875 199.275 195.225 201.245C195.365 201.445 195.505 201.645 195.645 201.855C195.855 204.155 196.545 206.385 197.685 208.225C201.815 214.935 211.425 216.315 217.815 213.395C221.785 211.575 223.175 208.605 224.395 205.975C224.965 204.775 225.505 203.605 226.305 202.445C227.395 203.815 228.665 205.115 230.145 206.305C232.665 208.355 235.685 209.955 238.865 210.955C246.015 213.185 255.295 212.595 260.455 209.585C263.185 207.995 264.095 206.095 264.375 204.775C265.745 198.395 255.945 191.805 248.305 189.885ZM233.915 161.345C235.275 160.245 237.535 158.735 240.655 157.765C243.205 156.965 245.795 156.655 248.185 156.655C253.615 156.655 258.025 158.265 258.515 159.505C258.535 160.865 253.525 165.615 246.845 167.285C241.375 168.665 235.245 167.645 230.675 164.695C231.585 163.495 232.655 162.365 233.915 161.345ZM125.255 167.285C118.575 165.615 113.565 160.855 113.585 159.505C114.075 158.265 118.485 156.655 123.915 156.655C126.305 156.655 128.895 156.965 131.445 157.765C134.565 158.735 136.825 160.245 138.185 161.345C139.435 162.365 140.515 163.495 141.425 164.695C136.855 167.645 130.725 168.665 125.255 167.285ZM138.185 201.645C136.825 202.745 134.565 204.255 131.445 205.225C128.895 206.025 126.305 206.335 123.915 206.335C118.485 206.335 114.075 204.725 113.585 203.485C113.565 202.135 118.575 197.375 125.255 195.705C130.725 194.325 136.855 195.345 141.425 198.295C140.515 199.495 139.435 200.625 138.185 201.645ZM202.815 162.445C202.945 162.445 203.075 162.445 203.205 162.445C206.195 162.445 209.195 164.655 209.355 165.605C209.305 165.735 208.725 166.545 207.335 167.225C205.975 167.905 204.485 168.105 203.635 167.735C202.955 167.445 202.355 166.595 201.985 165.395C201.765 164.715 201.645 163.975 201.595 163.225C202.045 162.725 202.415 162.485 202.815 162.455V162.445ZM169.285 162.445C169.685 162.475 170.055 162.715 170.505 163.215C170.455 163.965 170.335 164.705 170.115 165.385C169.745 166.585 169.145 167.435 168.465 167.725C167.615 168.095 166.125 167.895 164.765 167.215C163.375 166.535 162.795 165.725 162.745 165.595C162.905 164.645 165.905 162.435 168.895 162.435C169.025 162.435 169.155 162.435 169.285 162.435V162.445ZM169.285 200.545C169.155 200.545 169.025 200.555 168.895 200.555C165.905 200.555 162.905 198.345 162.745 197.395C162.795 197.265 163.375 196.455 164.765 195.775C166.125 195.095 167.615 194.895 168.465 195.265C169.145 195.555 169.745 196.405 170.115 197.605C170.335 198.285 170.455 199.025 170.505 199.775C170.055 200.275 169.685 200.515 169.285 200.545ZM202.815 200.545C202.415 200.515 202.045 200.275 201.595 199.775C201.645 199.025 201.765 198.285 201.985 197.605C202.355 196.405 202.955 195.555 203.635 195.265C204.485 194.895 205.975 195.095 207.335 195.775C208.725 196.455 209.305 197.265 209.355 197.395C209.195 198.345 206.195 200.555 203.205 200.555C203.075 200.555 202.945 200.545 202.815 200.545ZM222.935 197.045C220.885 199.325 219.835 201.565 218.965 203.445C217.795 205.935 217.205 207.075 215.325 207.935C211.995 209.465 206.875 209.045 204.015 206.525C207.265 206.295 210.705 204.795 212.965 202.545C214.645 200.865 215.465 198.965 215.345 197.065C215.195 194.765 213.625 192.545 211.025 190.955C208.505 189.425 204.615 188.295 201.245 189.765C199.475 190.535 198.015 191.975 197.025 193.915C196.285 193.195 195.435 192.495 194.435 191.885C194.435 191.885 193.465 191.295 192.365 190.845C188.785 189.395 183.315 189.395 179.735 190.845C178.635 191.295 177.665 191.885 177.655 191.885C176.655 192.495 175.805 193.185 175.075 193.915C174.085 191.975 172.625 190.535 170.855 189.765C167.485 188.295 163.595 189.425 161.075 190.955C158.475 192.545 156.905 194.765 156.755 197.065C156.635 198.965 157.455 200.865 159.135 202.545C161.395 204.795 164.835 206.295 168.085 206.525C165.225 209.045 160.105 209.465 156.775 207.935C154.895 207.075 154.305 205.935 153.135 203.445C152.265 201.565 151.215 199.325 149.165 197.045C152.265 190.575 152.605 184.015 152.605 181.495C152.605 178.975 152.265 172.415 149.165 165.945C151.215 163.665 152.265 161.425 153.135 159.545C154.305 157.055 154.895 155.915 156.775 155.055C160.105 153.525 165.225 153.945 168.085 156.465C164.835 156.695 161.395 158.195 159.135 160.445C157.455 162.125 156.635 164.025 156.755 165.925C156.905 168.225 158.475 170.445 161.075 172.035C163.595 173.565 167.485 174.695 170.855 173.225C172.625 172.455 174.085 171.015 175.075 169.075C175.815 169.795 176.665 170.495 177.655 171.105C177.655 171.105 178.625 171.695 179.735 172.145C183.315 173.595 188.785 173.595 192.365 172.145C193.465 171.695 194.435 171.105 194.435 171.105C195.435 170.495 196.285 169.795 197.025 169.075C198.015 171.015 199.475 172.455 201.245 173.225C204.615 174.695 208.505 173.565 211.025 172.035C213.625 170.445 215.195 168.225 215.345 165.925C215.465 164.025 214.645 162.125 212.965 160.445C210.705 158.195 207.265 156.695 204.015 156.465C206.875 153.945 211.995 153.525 215.325 155.055C217.205 155.915 217.795 157.055 218.965 159.545C219.835 161.425 220.885 163.665 222.935 165.945C219.835 172.415 219.495 178.975 219.495 181.495C219.495 184.015 219.835 190.575 222.935 197.045ZM248.185 206.335C245.795 206.335 243.205 206.025 240.655 205.225C237.535 204.255 235.275 202.745 233.915 201.645C232.655 200.625 231.585 199.495 230.675 198.295C235.245 195.345 241.375 194.325 246.845 195.705C253.525 197.375 258.535 202.125 258.515 203.485C258.025 204.725 253.615 206.335 248.185 206.335Z" fill="#FF0004"/>
</g>
<defs>
<clipPath id="clip0_121_1082">
<rect width="372.07" height="362.99" fill="white"/>
</clipPath>
</defs>
</svg>
