<svg width="373" height="363" viewBox="0 0 373 363" fill="none" xmlns="http://www.w3.org/2000/svg">
<path d="M189.01 362.98H183.06C181.46 346.31 169.79 260.83 97.22 215.06C63.27 193.64 28.5 188.83 5.32 188.57L0 188.51L2.82 184.02C29.39 141.69 58.62 126.68 78.47 121.54C89.09 118.79 101.72 117.42 119.11 117.15C119.11 86.15 125.95 56.97 138.35 34.97C151.06 12.42 168.16 0 186.49 0C204.82 0 221.91 12.42 234.63 34.97C247.04 56.98 253.87 86.17 253.87 117.17C270.62 117.48 283.3 118.88 293.6 121.55C313.44 126.69 342.68 141.7 369.25 184.03L372.07 188.52L366.75 188.58C343.56 188.84 308.8 193.65 274.84 215.07C202.27 260.84 190.6 346.32 189 362.99L189.01 362.98Z" fill="#540A0B"/>
<path d="M186.05 152.3C189.77 152.3 193.05 151.41 195.8 149.65C199.53 147.28 201.43 143.91 202.6 140.35C205.36 142.5 208.53 143.83 212.06 143.72C218.38 143.52 223.78 138.92 226.48 135.05C229.01 131.42 229.84 127.75 228.83 124.7C227.84 121.7 224.9 119.13 220.77 117.67C215.37 115.74 209.32 116.13 205.36 118.65C202.21 120.65 200.61 123.7 199.61 126.96C198.1 124.13 196.92 121.16 196.19 118.67C191.9 104.21 195.82 91.6896 201.27 86.1896C210.41 76.9596 226.84 80.3996 242.72 83.7296C259.22 87.1796 274.81 90.4496 283.69 80.4396C292.71 70.2596 290.52 49.4796 279.34 39.2596C275.46 35.7096 270.74 33.6096 265.82 32.5696C265.33 27.1896 265.62 22.3796 268.67 19.0696C272.42 15.0096 279.84 13.7896 290.72 15.4496L291.63 9.50959C278.65 7.53959 269.45 9.37959 264.26 14.9996C259.94 19.6796 259.31 25.6096 259.74 31.7996C254.74 31.5596 249.8 32.2096 245.55 33.3596C235.82 35.9996 228.64 41.3096 226.81 47.2096C224.57 54.4396 229.78 64.2696 237.95 68.2396C245.8 72.0596 256.29 70.2796 262.35 64.1196C269.01 57.3296 267.76 47.5796 266.59 38.9196C269.78 39.8596 272.78 41.3896 275.29 43.6896C283.97 51.6196 286.02 68.7696 279.2 76.4496C272.63 83.8596 258.7 80.9396 243.95 77.8496C227.31 74.3696 208.44 70.4196 197.01 81.9696C192.4 86.6196 189.53 93.3196 188.71 101.35C188.07 107.58 188.7 114.52 190.43 120.38C191.72 124.73 194.2 130.55 197.75 135.29C196.89 139.15 195.71 142.59 192.57 144.59C190.8 145.72 188.61 146.3 186.05 146.3C183.49 146.3 181.3 145.72 179.53 144.59C176.39 142.59 175.21 139.15 174.35 135.29C177.9 130.55 180.38 124.73 181.67 120.38C183.4 114.52 184.03 107.58 183.39 101.35C182.57 93.3196 179.7 86.6196 175.09 81.9696C163.66 70.4196 144.79 74.3696 128.15 77.8496C113.4 80.9396 99.47 83.8596 92.9 76.4496C86.08 68.7696 88.13 51.6196 96.81 43.6896C99.32 41.3896 102.32 39.8596 105.51 38.9196C104.34 47.5796 103.09 57.3296 109.75 64.1196C115.81 70.2796 126.3 72.0596 134.15 68.2396C142.32 64.2696 147.53 54.4396 145.29 47.2096C143.46 41.3096 136.28 35.9996 126.55 33.3596C122.3 32.2096 117.36 31.5596 112.36 31.7996C112.79 25.6096 112.16 19.6796 107.84 14.9996C102.65 9.37959 93.45 7.53959 80.47 9.50959L81.38 15.4496C92.26 13.7896 99.68 15.0096 103.43 19.0696C106.48 22.3796 106.77 27.1896 106.28 32.5696C101.36 33.6096 96.64 35.7096 92.76 39.2596C81.58 49.4796 79.39 70.2596 88.41 80.4396C97.29 90.4496 112.88 87.1796 129.38 83.7296C145.26 80.3996 161.69 76.9596 170.83 86.1896C176.28 91.6896 180.19 104.21 175.91 118.67C175.18 121.16 174 124.13 172.49 126.96C171.48 123.7 169.89 120.65 166.74 118.65C162.78 116.13 156.73 115.74 151.33 117.67C147.2 119.13 144.26 121.7 143.27 124.7C142.25 127.75 143.09 131.42 145.62 135.05C148.32 138.92 153.72 143.52 160.04 143.72C163.57 143.83 166.74 142.5 169.5 140.35C170.67 143.91 172.57 147.28 176.3 149.65C179.05 151.41 182.33 152.3 186.05 152.3ZM258.07 59.9096C253.87 64.1796 246.03 65.4996 240.58 62.8496C235.17 60.2196 231.19 53.3496 232.54 48.9896C233.73 45.1496 239.59 41.1996 247.12 39.1496C251.1 38.0696 255.76 37.4796 260.38 37.8296C260.46 38.3796 260.53 38.9196 260.61 39.4696C261.7 47.5396 262.74 55.1596 258.07 59.9096ZM111.48 39.4696C111.56 38.9196 111.63 38.3796 111.7 37.8296C116.33 37.4796 120.99 38.0696 124.97 39.1496C132.5 41.1996 138.36 45.1496 139.55 48.9896C140.9 53.3496 136.92 60.2196 131.51 62.8496C126.06 65.4996 118.22 64.1796 114.02 59.9096C109.35 55.1596 110.39 47.5396 111.48 39.4696ZM160.22 137.72C156.95 137.62 152.97 135.11 150.53 131.62C149.19 129.7 148.57 127.73 148.95 126.59C149.34 125.41 151.06 124.13 153.33 123.32C154.99 122.73 156.73 122.44 158.37 122.44C160.35 122.44 162.18 122.87 163.51 123.71C166.26 125.46 167.02 129.26 167.89 133.66C165.59 136.16 162.97 137.83 160.22 137.72ZM208.58 123.71C209.9 122.87 211.74 122.44 213.72 122.44C215.36 122.44 217.1 122.73 218.76 123.32C221.03 124.13 222.75 125.41 223.14 126.59C223.52 127.73 222.9 129.7 221.56 131.62C219.12 135.11 215.14 137.62 211.87 137.72C209.12 137.83 206.5 136.16 204.2 133.66C205.07 129.26 205.83 125.46 208.58 123.71Z" fill="#FF0004"/>
<path d="M186.04 210.65C182.32 210.65 179.04 211.54 176.29 213.3C172.56 215.67 170.66 219.04 169.49 222.6C166.73 220.45 163.56 219.12 160.03 219.23C153.71 219.43 148.31 224.03 145.61 227.9C143.08 231.53 142.24 235.2 143.26 238.25C144.25 241.25 147.19 243.82 151.32 245.28C156.72 247.21 162.77 246.82 166.73 244.3C169.88 242.3 171.47 239.25 172.48 235.99C173.99 238.82 175.17 241.79 175.9 244.28C180.18 258.74 176.27 271.26 170.82 276.76C161.68 285.99 145.25 282.55 129.37 279.22C112.87 275.77 97.28 272.5 88.4 282.51C79.38 292.69 81.57 313.47 92.75 323.69C96.63 327.24 101.35 329.34 106.27 330.38C106.76 335.76 106.47 340.57 103.42 343.88C99.67 347.94 92.25 349.16 81.37 347.5L80.46 353.44C93.44 355.41 102.64 353.57 107.83 347.95C112.15 343.27 112.78 337.34 112.35 331.15C117.35 331.39 122.29 330.74 126.54 329.59C136.27 326.95 143.45 321.64 145.28 315.74C147.52 308.51 142.31 298.68 134.14 294.71C126.29 290.89 115.8 292.67 109.74 298.83C103.08 305.62 104.33 315.37 105.5 324.03C102.31 323.09 99.31 321.56 96.8 319.26C88.12 311.33 86.07 294.18 92.89 286.5C99.46 279.09 113.39 282.01 128.14 285.1C144.78 288.58 163.65 292.53 175.08 280.98C179.69 276.33 182.56 269.63 183.38 261.6C184.02 255.37 183.39 248.43 181.66 242.57C180.37 238.22 177.89 232.4 174.34 227.66C175.2 223.8 176.38 220.36 179.52 218.36C181.29 217.23 183.48 216.65 186.04 216.65C188.6 216.65 190.79 217.23 192.56 218.36C195.7 220.36 196.88 223.8 197.74 227.66C194.19 232.4 191.71 238.22 190.42 242.57C188.69 248.43 188.06 255.37 188.7 261.6C189.52 269.63 192.39 276.33 197 280.98C208.43 292.53 227.3 288.58 243.94 285.1C258.69 282.01 272.62 279.09 279.19 286.5C286.01 294.18 283.96 311.33 275.28 319.26C272.77 321.56 269.77 323.09 266.58 324.03C267.75 315.37 269 305.62 262.34 298.83C256.28 292.67 245.79 290.89 237.94 294.71C229.77 298.68 224.56 308.51 226.8 315.74C228.63 321.64 235.81 326.95 245.54 329.59C249.79 330.74 254.73 331.39 259.73 331.15C259.3 337.34 259.93 343.27 264.25 347.95C269.44 353.57 278.64 355.41 291.62 353.44L290.71 347.5C279.83 349.16 272.41 347.94 268.66 343.88C265.61 340.57 265.32 335.76 265.81 330.38C270.73 329.34 275.45 327.24 279.33 323.69C290.51 313.47 292.7 292.69 283.68 282.51C274.8 272.5 259.21 275.77 242.71 279.22C226.83 282.55 210.4 285.99 201.26 276.76C195.81 271.26 191.89 258.74 196.18 244.28C196.91 241.79 198.09 238.82 199.6 235.99C200.6 239.25 202.2 242.3 205.35 244.3C209.31 246.82 215.36 247.21 220.76 245.28C224.89 243.82 227.83 241.25 228.82 238.25C229.83 235.2 229 231.53 226.47 227.9C223.77 224.03 218.37 219.43 212.05 219.23C208.52 219.12 205.35 220.45 202.59 222.6C201.42 219.04 199.52 215.67 195.79 213.3C193.04 211.54 189.76 210.65 186.04 210.65ZM260.61 323.48C260.53 324.03 260.46 324.57 260.38 325.12C255.76 325.47 251.1 324.88 247.12 323.8C239.59 321.75 233.73 317.8 232.54 313.96C231.19 309.6 235.17 302.73 240.58 300.1C246.03 297.45 253.87 298.77 258.07 303.04C262.74 307.79 261.7 315.41 260.61 323.48ZM114.02 303.04C118.22 298.77 126.06 297.45 131.51 300.1C136.92 302.73 140.9 309.6 139.55 313.96C138.36 317.8 132.5 321.75 124.97 323.8C120.99 324.88 116.33 325.47 111.7 325.12C111.63 324.57 111.56 324.03 111.48 323.48C110.39 315.41 109.35 307.79 114.02 303.04ZM167.89 229.29C167.02 233.69 166.26 237.49 163.51 239.24C162.18 240.08 160.35 240.51 158.37 240.51C156.73 240.51 154.99 240.22 153.33 239.63C151.06 238.82 149.34 237.54 148.95 236.36C148.57 235.22 149.19 233.25 150.53 231.33C152.97 227.84 156.95 225.33 160.22 225.23C162.97 225.12 165.59 226.79 167.89 229.29ZM204.2 229.29C206.5 226.79 209.12 225.12 211.87 225.23C215.14 225.33 219.12 227.84 221.56 231.33C222.9 233.25 223.52 235.22 223.14 236.36C222.75 237.54 221.03 238.82 218.76 239.63C217.1 240.22 215.36 240.51 213.72 240.51C211.74 240.51 209.9 240.08 208.58 239.24C205.83 237.49 205.07 233.69 204.2 229.29Z" fill="#FF0004"/>
<path d="M356.92 227.46C355.2 219.82 347.94 206.8 335 202.25C330.07 200.52 324.14 200.11 318.82 200.96C317.08 193.21 317.32 184.65 322.43 180.88C325.29 178.77 333.5 179.11 338.7 181.54C340.87 182.56 341.9 183.69 341.93 184.3L347.92 183.95C347.79 181.74 346.53 178.58 341.24 176.11C334.62 173 324.05 172.24 318.87 176.05C311.18 181.72 310.82 192.93 313.02 202.52C309.19 204.04 306.23 206.43 305.1 209.65C303.44 214.37 306.43 218.4 309.07 221.96C311.58 225.35 313.95 228.55 313.21 232.28C312.15 237.63 305.61 242.35 299.51 242.26C299.16 242.26 298.83 242.23 298.5 242.2C299.56 240.19 300.39 238.09 300.95 236.14C302.95 229.22 302.34 223.29 299.32 220.27C297.01 217.97 293.02 217.06 288.63 217.85C284.16 218.65 280.65 220.93 279.25 223.97C277.68 227.38 278.54 232.3 281.56 237.14C283.24 239.82 285.73 242.62 288.84 244.74C288.27 245.12 287.69 245.39 287.12 245.51C283.2 246.39 278.12 240.18 273.21 234.17C266.26 225.65 258.38 216.01 247.67 217.2C240.28 218.03 233.26 224.02 232.32 230.28C231.42 236.33 235.96 240.47 240.34 244.48C244.43 248.21 248.66 252.08 248.92 257.53C248.96 258.37 248.91 259.25 248.77 260.14C246.92 258.29 244.69 256.97 242.03 256.9C239.62 256.83 237.03 257.8 234.93 259.56C232.63 261.47 231.27 264.08 231.21 266.71C231.14 269.22 232.19 271.72 234.16 273.75C236.13 275.76 238.74 276.97 241.15 276.97H241.16C243.78 276.97 246.45 275.63 248.88 273.09C249 272.97 249.11 272.85 249.22 272.73C249.34 273.07 249.45 273.42 249.56 273.76C253.24 285.41 248.97 303.27 236.95 310.28C230.59 314 223.04 309.05 212.26 301.07C203.86 294.86 195.19 288.44 186.05 288.44C176.9 288.44 168.23 294.86 159.84 301.07C149.06 309.05 141.51 314 135.14 310.28C123.13 303.27 118.86 285.4 122.54 273.76C122.65 273.41 122.76 273.07 122.88 272.72C122.99 272.84 123.11 272.96 123.22 273.08C125.65 275.63 128.32 276.97 130.94 276.97H130.95C133.36 276.97 135.97 275.76 137.94 273.74C139.91 271.72 140.96 269.22 140.89 266.71C140.83 264.07 139.47 261.47 137.17 259.55C135.07 257.8 132.48 256.83 130.07 256.9C127.42 256.97 125.18 258.28 123.33 260.13C123.19 259.24 123.14 258.36 123.18 257.53C123.44 252.08 127.67 248.21 131.76 244.47C136.14 240.47 140.68 236.33 139.78 230.28C138.85 224.02 131.82 218.03 124.43 217.2C113.72 216 105.84 225.65 98.89 234.17C93.98 240.18 88.9 246.39 84.98 245.51C84.41 245.38 83.83 245.12 83.26 244.73C86.37 242.61 88.86 239.82 90.54 237.13C93.56 232.3 94.42 227.38 92.85 223.96C91.45 220.93 87.95 218.64 83.47 217.84C79.09 217.06 75.09 217.96 72.79 220.27C69.76 223.29 69.15 229.22 71.15 236.13C71.72 238.08 72.54 240.18 73.61 242.19C73.27 242.23 72.94 242.25 72.6 242.26C66.49 242.35 59.95 237.63 58.89 232.28C58.15 228.55 60.52 225.35 63.04 221.96C65.67 218.4 68.67 214.36 67.01 209.65C65.87 206.42 62.91 204.04 59.08 202.52C61.28 192.93 60.93 181.71 53.23 176.04C48.06 172.23 37.48 173 30.86 176.1C25.58 178.58 24.31 181.73 24.18 183.94L30.17 184.3C30.21 183.68 31.23 182.55 33.41 181.53C38.6 179.1 46.81 178.77 49.67 180.88C54.79 184.64 55.02 193.21 53.28 200.96C47.97 200.1 42.03 200.51 37.11 202.24C24.16 206.79 16.9 219.81 15.18 227.46C14.24 231.62 14.72 234.79 16.56 236.61C18.22 238.25 20.86 238.75 24.39 238.11C33.03 236.52 49.03 227.09 55.95 211.89C56.45 210.78 56.94 209.59 57.39 208.32C59.47 209.24 60.91 210.41 61.35 211.64C61.91 213.23 60.54 215.25 58.22 218.39C55.34 222.27 51.75 227.11 53.01 233.44C54.63 241.66 63.69 248.48 72.72 248.26C74.34 248.22 75.9 247.97 77.37 247.54C79.16 249.42 81.27 250.83 83.66 251.37C91.21 253.06 97.2 245.73 103.54 237.96C109.81 230.27 116.3 222.33 123.76 223.16C128.41 223.68 133.31 227.57 133.84 231.16C134.24 233.86 131.79 236.31 127.71 240.04C123.19 244.17 117.56 249.32 117.18 257.24C117.04 260.28 117.7 263.54 118.98 266.54C117.89 268.75 117.18 270.79 116.82 271.95C112.36 286.05 117.45 306.9 132.12 315.46C134.65 316.94 137.2 317.57 139.77 317.57C147.63 317.57 155.62 311.66 163.41 305.9C171.02 300.26 178.88 294.45 186.05 294.44C193.22 294.45 201.08 300.27 208.69 305.9C216.48 311.66 224.47 317.57 232.33 317.57C234.9 317.57 237.45 316.94 239.98 315.47C254.65 306.9 259.74 286.05 255.28 271.95C254.92 270.79 254.21 268.76 253.12 266.55C254.4 263.55 255.06 260.29 254.92 257.24C254.54 249.32 248.91 244.18 244.39 240.05C240.31 236.32 237.86 233.86 238.26 231.16C238.79 227.57 243.69 223.69 248.34 223.16C255.8 222.33 262.29 230.28 268.56 237.96C274.9 245.73 280.89 253.06 288.44 251.37C290.83 250.83 292.94 249.42 294.73 247.55C296.2 247.97 297.76 248.23 299.38 248.26C308.41 248.48 317.47 241.67 319.1 233.45C320.35 227.12 316.77 222.28 313.89 218.39C311.56 215.26 310.2 213.24 310.76 211.64C311.19 210.41 312.64 209.24 314.71 208.33C315.16 209.59 315.65 210.79 316.15 211.89C323.08 227.1 339.08 236.53 347.71 238.11C351.25 238.76 353.88 238.26 355.54 236.62C357.38 234.8 357.86 231.63 356.92 227.46ZM244.54 268.94C243.33 270.21 242.06 270.97 241.16 270.97C240.5 270.97 239.41 270.54 238.46 269.56C237.64 268.72 237.18 267.73 237.2 266.86C237.23 265.96 237.8 264.97 238.77 264.17C239.72 263.37 240.92 262.88 241.87 262.9C243.34 262.94 244.92 264.44 246.32 266.63C245.79 267.48 245.19 268.26 244.54 268.94ZM130.22 262.9C131.17 262.87 132.37 263.37 133.33 264.16C134.29 264.97 134.86 265.95 134.89 266.86C134.91 267.73 134.45 268.71 133.63 269.56C132.68 270.53 131.59 270.97 130.93 270.97C130.03 270.97 128.76 270.21 127.55 268.94C126.9 268.26 126.3 267.48 125.77 266.63C127.17 264.44 128.75 262.93 130.22 262.9ZM50.48 209.4C45.45 220.44 34.4 228.54 26.26 231.39C23.1 232.5 21.37 232.45 20.81 232.31C20.63 231.69 20.49 229.57 21.97 225.69C24.38 219.41 30.3 210.99 39.08 207.9C43.25 206.44 47.72 206.22 51.56 206.76C51.22 207.68 50.86 208.57 50.48 209.4ZM79.31 240.16C78.35 238.5 77.51 236.55 76.9 234.46C75.47 229.5 75.89 225.64 77.01 224.51C77.53 224 78.75 223.57 80.42 223.57C81.03 223.57 81.69 223.62 82.41 223.75C85.07 224.23 86.93 225.48 87.39 226.48C87.97 227.72 87.48 230.69 85.44 233.95C84.04 236.19 81.93 238.53 79.31 240.16ZM295.19 234.47C294.58 236.55 293.75 238.5 292.78 240.16C290.17 238.54 288.05 236.2 286.65 233.95C284.61 230.69 284.13 227.73 284.7 226.48C285.16 225.49 287.02 224.23 289.69 223.75C290.4 223.63 291.07 223.57 291.67 223.57C293.35 223.57 294.56 224 295.08 224.52C296.2 225.64 296.62 229.51 295.19 234.47ZM351.29 232.31C350.72 232.46 348.99 232.51 345.83 231.4C337.69 228.54 326.64 220.44 321.61 209.41C321.23 208.57 320.87 207.69 320.53 206.76C324.37 206.23 328.85 206.45 333.01 207.91C341.79 211 347.72 219.42 350.12 225.69C351.61 229.58 351.46 231.7 351.29 232.31Z" fill="#FF0004"/>
<path d="M86.13 170.8C83.04 170.8 79.62 169.71 76.42 167.67C72.73 169.67 68.65 170.51 65.05 169.94C60.2 169.17 57.89 166.2 54.7 162.08C52.56 159.33 49.91 155.92 45.5 151.6C38.62 144.86 32.68 139.04 27.42 140.04C23.77 140.73 19.68 144.58 19.67 148.99C19.65 153.34 23.61 156.33 24.06 156.66L20.54 161.52C19.39 160.69 13.64 156.16 13.67 148.97C13.7 141.3 20.25 135.3 26.3 134.15C34.62 132.56 41.61 139.4 49.7 147.32C54.4 151.92 57.31 155.67 59.44 158.4C62.52 162.36 63.61 163.63 66 164.01C67.64 164.27 69.52 164.03 71.39 163.37C68.57 160.16 67.1 156.51 67.34 153.1C67.58 149.68 69.59 146.02 72.45 143.76C74.44 142.19 76.66 141.51 78.69 141.84C83.75 142.68 86.75 149.54 86.06 155.11C85.69 158.13 84.12 161.14 81.67 163.7C83.97 164.75 86.21 165.1 87.82 164.55C89.75 163.9 91.66 161.67 92.94 158.58C94.87 153.91 94.95 148.56 93.15 144.96C89.37 137.38 76.71 136.69 64.48 136.03C51.11 135.3 37.28 134.55 32.41 124.61C29.73 119.15 30.48 112.44 32.67 106.38C27 101.43 22.41 94.65 22.02 86.6C21.34 72.42 33.94 62.54 36.47 60.71L39.99 65.57C38.71 66.5 27.46 74.98 28.01 86.32C28.28 91.91 31.3 96.8 35.25 100.64C35.67 99.86 36.11 99.11 36.56 98.38C41.43 90.54 47.64 85.84 53.16 85.82H53.19C58.96 85.82 64.05 90.71 66.1 95.55C68.66 101.6 67.59 110.82 61.95 114.38C56.45 117.85 47.49 115.44 40.94 112.03C39.88 111.48 38.81 110.86 37.75 110.18C36.41 114.77 36.36 119.04 37.8 121.97C41.13 128.76 53.17 129.41 64.81 130.04C78.76 130.8 93.18 131.58 98.52 142.28C101.1 147.45 101.09 154.57 98.49 160.87C96.51 165.68 93.4 169 89.74 170.24C88.63 170.62 87.42 170.8 86.15 170.8H86.13ZM77.63 147.75C77.4 147.75 76.87 147.89 76.15 148.46C74.63 149.66 73.43 151.79 73.31 153.51C73.17 155.52 74.44 158.01 76.64 160.2C78.6 158.42 79.84 156.35 80.08 154.36C80.47 151.21 78.67 147.91 77.69 147.74C77.67 147.74 77.65 147.74 77.63 147.74V147.75ZM39.98 104.48C41.21 105.31 42.45 106.05 43.68 106.69C50.57 110.28 56.46 110.71 58.72 109.29C61.09 107.8 62.39 102.24 60.55 97.88C59.13 94.53 55.82 91.81 53.17 91.81H53.16C49.87 91.82 45.24 95.73 41.64 101.53C41.04 102.5 40.49 103.49 39.99 104.47L39.98 104.48Z" fill="#FF0004"/>
<path d="M282.38 170.24C278.72 169.01 275.62 165.68 273.64 160.87C271.04 154.57 271.03 147.45 273.61 142.28C278.95 131.58 293.38 130.79 307.32 130.04C318.96 129.41 331 128.75 334.33 121.97C335.77 119.03 335.73 114.77 334.38 110.18C333.32 110.86 332.25 111.48 331.19 112.03C324.64 115.44 315.68 117.85 310.18 114.38C304.54 110.83 303.46 101.61 306.03 95.55C308.08 90.71 313.17 85.82 318.94 85.82H318.97C324.49 85.84 330.7 90.53 335.57 98.38C336.02 99.1 336.46 99.86 336.88 100.64C340.84 96.8 343.85 91.9 344.12 86.32C344.67 74.99 333.42 66.5 332.14 65.57L335.66 60.71C338.19 62.55 350.8 72.42 350.11 86.6C349.72 94.64 345.13 101.43 339.46 106.38C341.65 112.44 342.4 119.16 339.72 124.61C334.84 134.55 321.02 135.3 307.65 136.03C295.41 136.7 282.76 137.38 278.98 144.96C277.18 148.56 277.26 153.91 279.19 158.58C280.46 161.67 282.38 163.9 284.31 164.55C285.92 165.09 288.16 164.75 290.46 163.7C288 161.14 286.44 158.13 286.07 155.11C285.38 149.53 288.38 142.67 293.44 141.84C295.47 141.51 297.68 142.19 299.68 143.76C302.54 146.02 304.54 149.68 304.79 153.1C305.03 156.51 303.56 160.16 300.74 163.37C302.61 164.03 304.49 164.27 306.13 164.01C308.52 163.63 309.61 162.36 312.69 158.4C314.82 155.66 317.73 151.92 322.43 147.32C330.52 139.4 337.51 132.57 345.83 134.15C351.88 135.3 358.43 141.29 358.46 148.97C358.49 156.16 352.74 160.69 351.59 161.52L348.07 156.66C348.52 156.33 352.48 153.35 352.46 148.99C352.44 144.58 348.36 140.74 344.71 140.04C339.45 139.04 333.51 144.86 326.63 151.6C322.22 155.91 319.57 159.33 317.43 162.08C314.23 166.19 311.92 169.16 307.08 169.94C303.47 170.51 299.4 169.67 295.71 167.67C292.51 169.71 289.09 170.8 286 170.8C284.74 170.8 283.53 170.62 282.41 170.24H282.38ZM294.4 147.76C293.42 147.92 291.62 151.23 292.01 154.38C292.26 156.36 293.49 158.44 295.45 160.22C297.65 158.03 298.92 155.54 298.78 153.53C298.66 151.8 297.46 149.68 295.94 148.48C295.22 147.91 294.69 147.77 294.46 147.77C294.44 147.77 294.41 147.77 294.4 147.77V147.76ZM330.47 101.54C326.87 95.74 322.24 91.83 318.95 91.82H318.94C316.28 91.82 312.98 94.54 311.56 97.89C309.71 102.25 311.02 107.81 313.39 109.3C315.65 110.72 321.54 110.29 328.43 106.7C329.66 106.06 330.9 105.32 332.13 104.49C331.63 103.5 331.08 102.52 330.48 101.55L330.47 101.54Z" fill="#FF0004"/>
<path d="M248.29 189.88C241.37 188.14 233.62 189.4 227.7 193.07C225.71 188.19 225.48 183.41 225.48 181.49C225.48 179.57 225.71 174.79 227.7 169.91C233.62 173.58 241.37 174.84 248.29 173.1C255.93 171.18 265.73 164.59 264.36 158.21C264.08 156.89 263.17 154.99 260.44 153.4C255.28 150.39 246 149.8 238.85 152.03C235.67 153.03 232.65 154.63 230.13 156.68C228.65 157.87 227.38 159.17 226.29 160.54C225.49 159.38 224.95 158.21 224.38 157.01C223.16 154.38 221.77 151.41 217.8 149.59C211.41 146.67 201.8 148.05 197.67 154.76C196.53 156.6 195.84 158.83 195.63 161.13C195.49 161.34 195.35 161.54 195.21 161.74C193.86 163.71 192.57 165.58 190.1 166.58C188.86 167.09 187.5 167.35 186.05 167.36H186.02C184.57 167.35 183.21 167.09 181.97 166.58C179.5 165.58 178.21 163.71 176.86 161.74C176.72 161.54 176.58 161.34 176.44 161.13C176.23 158.83 175.54 156.6 174.4 154.76C170.27 148.05 160.66 146.67 154.27 149.59C150.3 151.41 148.91 154.38 147.69 157.01C147.12 158.21 146.58 159.38 145.78 160.54C144.69 159.17 143.42 157.87 141.94 156.68C139.42 154.63 136.4 153.03 133.22 152.03C126.07 149.8 116.79 150.39 111.63 153.4C108.9 154.99 107.99 156.89 107.71 158.21C106.34 164.59 116.14 171.18 123.78 173.1C130.7 174.84 138.45 173.58 144.37 169.91C146.36 174.79 146.59 179.57 146.59 181.49C146.59 183.41 146.36 188.19 144.37 193.07C138.45 189.4 130.7 188.14 123.78 189.88C116.14 191.8 106.34 198.39 107.71 204.77C107.99 206.09 108.9 207.99 111.63 209.58C116.79 212.59 126.07 213.18 133.22 210.95C136.4 209.95 139.42 208.35 141.94 206.3C143.42 205.11 144.69 203.81 145.78 202.44C146.58 203.6 147.12 204.77 147.69 205.97C148.91 208.6 150.3 211.57 154.27 213.39C160.66 216.31 170.27 214.93 174.4 208.22C175.54 206.38 176.23 204.15 176.44 201.85C176.58 201.64 176.72 201.44 176.86 201.24C178.21 199.27 179.5 197.4 181.97 196.4C183.21 195.89 184.57 195.63 186.02 195.62H186.05C187.5 195.62 188.86 195.89 190.1 196.4C192.57 197.4 193.86 199.27 195.21 201.24C195.35 201.44 195.49 201.64 195.63 201.85C195.84 204.15 196.53 206.38 197.67 208.22C201.8 214.93 211.41 216.31 217.8 213.39C221.77 211.57 223.16 208.6 224.38 205.97C224.95 204.77 225.49 203.6 226.29 202.44C227.38 203.81 228.65 205.11 230.13 206.3C232.65 208.35 235.67 209.95 238.85 210.95C246 213.18 255.28 212.59 260.44 209.58C263.17 207.99 264.08 206.09 264.36 204.77C265.73 198.39 255.93 191.8 248.29 189.88ZM233.9 161.34C235.26 160.24 237.52 158.73 240.64 157.76C243.19 156.96 245.78 156.65 248.17 156.65C253.6 156.65 258.01 158.26 258.5 159.5C258.52 160.86 253.51 165.61 246.83 167.28C241.36 168.66 235.23 167.64 230.66 164.69C231.57 163.49 232.64 162.36 233.9 161.34ZM125.24 167.28C118.56 165.61 113.55 160.85 113.57 159.5C114.06 158.26 118.47 156.65 123.9 156.65C126.29 156.65 128.88 156.96 131.43 157.76C134.55 158.73 136.81 160.24 138.17 161.34C139.42 162.36 140.5 163.49 141.41 164.69C136.84 167.64 130.71 168.66 125.24 167.28ZM138.17 201.64C136.81 202.74 134.55 204.25 131.43 205.22C128.88 206.02 126.29 206.33 123.9 206.33C118.47 206.33 114.06 204.72 113.57 203.48C113.55 202.13 118.56 197.37 125.24 195.7C130.71 194.32 136.84 195.34 141.41 198.29C140.5 199.49 139.42 200.62 138.17 201.64ZM202.8 162.44C202.93 162.44 203.06 162.44 203.19 162.44C206.18 162.44 209.18 164.65 209.34 165.6C209.29 165.73 208.71 166.54 207.32 167.22C205.96 167.9 204.47 168.1 203.62 167.73C202.94 167.44 202.34 166.59 201.97 165.39C201.75 164.71 201.63 163.97 201.58 163.22C202.03 162.72 202.4 162.48 202.8 162.45V162.44ZM169.27 162.44C169.67 162.47 170.04 162.71 170.49 163.21C170.44 163.96 170.32 164.7 170.1 165.38C169.73 166.58 169.13 167.43 168.45 167.72C167.6 168.09 166.11 167.89 164.75 167.21C163.36 166.53 162.78 165.72 162.73 165.59C162.89 164.64 165.89 162.43 168.88 162.43C169.01 162.43 169.14 162.43 169.27 162.43V162.44ZM169.27 200.54C169.14 200.54 169.01 200.55 168.88 200.55C165.89 200.55 162.89 198.34 162.73 197.39C162.78 197.26 163.36 196.45 164.75 195.77C166.11 195.09 167.6 194.89 168.45 195.26C169.13 195.55 169.73 196.4 170.1 197.6C170.32 198.28 170.44 199.02 170.49 199.77C170.04 200.27 169.67 200.51 169.27 200.54ZM202.8 200.54C202.4 200.51 202.03 200.27 201.58 199.77C201.63 199.02 201.75 198.28 201.97 197.6C202.34 196.4 202.94 195.55 203.62 195.26C204.47 194.89 205.96 195.09 207.32 195.77C208.71 196.45 209.29 197.26 209.34 197.39C209.18 198.34 206.18 200.55 203.19 200.55C203.06 200.55 202.93 200.54 202.8 200.54ZM222.92 197.04C220.87 199.32 219.82 201.56 218.95 203.44C217.78 205.93 217.19 207.07 215.31 207.93C211.98 209.46 206.86 209.04 204 206.52C207.25 206.29 210.69 204.79 212.95 202.54C214.63 200.86 215.45 198.96 215.33 197.06C215.18 194.76 213.61 192.54 211.01 190.95C208.49 189.42 204.6 188.29 201.23 189.76C199.46 190.53 198 191.97 197.01 193.91C196.27 193.19 195.42 192.49 194.42 191.88C194.42 191.88 193.45 191.29 192.35 190.84C188.77 189.39 183.3 189.39 179.72 190.84C178.62 191.29 177.65 191.88 177.64 191.88C176.64 192.49 175.79 193.18 175.06 193.91C174.07 191.97 172.61 190.53 170.84 189.76C167.47 188.29 163.58 189.42 161.06 190.95C158.46 192.54 156.89 194.76 156.74 197.06C156.62 198.96 157.44 200.86 159.12 202.54C161.38 204.79 164.82 206.29 168.07 206.52C165.21 209.04 160.09 209.46 156.76 207.93C154.88 207.07 154.29 205.93 153.12 203.44C152.25 201.56 151.2 199.32 149.15 197.04C152.25 190.57 152.59 184.01 152.59 181.49C152.59 178.97 152.25 172.41 149.15 165.94C151.2 163.66 152.25 161.42 153.12 159.54C154.29 157.05 154.88 155.91 156.76 155.05C160.09 153.52 165.21 153.94 168.07 156.46C164.82 156.69 161.38 158.19 159.12 160.44C157.44 162.12 156.62 164.02 156.74 165.92C156.89 168.22 158.46 170.44 161.06 172.03C163.58 173.56 167.47 174.69 170.84 173.22C172.61 172.45 174.07 171.01 175.06 169.07C175.8 169.79 176.65 170.49 177.64 171.1C177.64 171.1 178.61 171.69 179.72 172.14C183.3 173.59 188.77 173.59 192.35 172.14C193.45 171.69 194.42 171.1 194.42 171.1C195.42 170.49 196.27 169.79 197.01 169.07C198 171.01 199.46 172.45 201.23 173.22C204.6 174.69 208.49 173.56 211.01 172.03C213.61 170.44 215.18 168.22 215.33 165.92C215.45 164.02 214.63 162.12 212.95 160.44C210.69 158.19 207.25 156.69 204 156.46C206.86 153.94 211.98 153.52 215.31 155.05C217.19 155.91 217.78 157.05 218.95 159.54C219.82 161.42 220.87 163.66 222.92 165.94C219.82 172.41 219.48 178.97 219.48 181.49C219.48 184.01 219.82 190.57 222.92 197.04ZM248.17 206.33C245.78 206.33 243.19 206.02 240.64 205.22C237.52 204.25 235.26 202.74 233.9 201.64C232.64 200.62 231.57 199.49 230.66 198.29C235.23 195.34 241.36 194.32 246.83 195.7C253.51 197.37 258.52 202.12 258.5 203.48C258.01 204.72 253.6 206.33 248.17 206.33Z" fill="#FF0004"/>
</svg>
