<svg width="373" height="363" viewBox="0 0 373 363" fill="none" xmlns="http://www.w3.org/2000/svg">
<path d="M189.01 362.98H183.06C181.46 346.31 169.79 260.83 97.22 215.06C63.27 193.64 28.5 188.83 5.32 188.57L0 188.51L2.82 184.02C29.39 141.69 58.62 126.68 78.47 121.54C89.09 118.79 101.72 117.42 119.11 117.15C119.11 86.15 125.95 56.97 138.35 34.97C151.06 12.42 168.16 0 186.49 0C204.82 0 221.91 12.42 234.63 34.97C247.04 56.98 253.87 86.17 253.87 117.17C270.62 117.48 283.3 118.88 293.6 121.55C313.44 126.69 342.68 141.7 369.25 184.03L372.07 188.52L366.75 188.58C343.56 188.84 308.8 193.65 274.84 215.07C202.27 260.84 190.6 346.32 189 362.99L189.01 362.98Z" fill="#540A0B"/>
<path d="M186.05 152.3C189.77 152.3 193.05 151.41 195.8 149.65C199.53 147.28 201.43 143.91 202.6 140.35C205.36 142.5 208.53 143.83 212.06 143.72C218.38 143.52 223.78 138.92 226.48 135.05C229.01 131.42 229.84 127.75 228.83 124.7C227.84 121.7 224.9 119.13 220.77 117.67C215.37 115.74 209.32 116.13 205.36 118.65C202.21 120.65 200.61 123.7 199.61 126.96C198.1 124.13 196.92 121.16 196.19 118.67C191.9 104.21 195.82 91.6896 201.27 86.1896C210.41 76.9596 226.84 80.3996 242.72 83.7296C259.22 87.1796 274.81 90.4496 283.69 80.4396C292.71 70.2596 290.52 49.4796 279.34 39.2596C275.46 35.7096 270.74 33.6096 265.82 32.5696C265.33 27.1896 265.62 22.3796 268.67 19.0696C272.42 15.0096 279.84 13.7896 290.72 15.4496L291.63 9.50959C278.65 7.53959 269.45 9.37959 264.26 14.9996C259.94 19.6796 259.31 25.6096 259.74 31.7996C254.74 31.5596 249.8 32.2096 245.55 33.3596C235.82 35.9996 228.64 41.3096 226.81 47.2096C224.57 54.4396 229.78 64.2696 237.95 68.2396C245.8 72.0596 256.29 70.2796 262.35 64.1196C269.01 57.3296 267.76 47.5796 266.59 38.9196C269.78 39.8596 272.78 41.3896 275.29 43.6896C283.97 51.6196 286.02 68.7696 279.2 76.4496C272.63 83.8596 258.7 80.9396 243.95 77.8496C227.31 74.3696 208.44 70.4196 197.01 81.9696C192.4 86.6196 189.53 93.3196 188.71 101.35C188.07 107.58 188.7 114.52 190.43 120.38C191.72 124.73 194.2 130.55 197.75 135.29C196.89 139.15 195.71 142.59 192.57 144.59C190.8 145.72 188.61 146.3 186.05 146.3C183.49 146.3 181.3 145.72 179.53 144.59C176.39 142.59 175.21 139.15 174.35 135.29C177.9 130.55 180.38 124.73 181.67 120.38C183.4 114.52 184.03 107.58 183.39 101.35C182.57 93.3196 179.7 86.6196 175.09 81.9696C163.66 70.4196 144.79 74.3696 128.15 77.8496C113.4 80.9396 99.47 83.8596 92.9 76.4496C86.08 68.7696 88.13 51.6196 96.81 43.6896C99.32 41.3896 102.32 39.8596 105.51 38.9196C104.34 47.5796 103.09 57.3296 109.75 64.1196C115.81 70.2796 126.3 72.0596 134.15 68.2396C142.32 64.2696 147.53 54.4396 145.29 47.2096C143.46 41.3096 136.28 35.9996 126.55 33.3596C122.3 32.2096 117.36 31.5596 112.36 31.7996C112.79 25.6096 112.16 19.6796 107.84 14.9996C102.65 9.37959 93.45 7.53959 80.47 9.50959L81.38 15.4496C92.26 13.7896 99.68 15.0096 103.43 19.0696C106.48 22.3796 106.77 27.1896 106.28 32.5696C101.36 33.6096 96.64 35.7096 92.76 39.2596C81.58 49.4796 79.39 70.2596 88.41 80.4396C97.29 90.4496 112.88 87.1796 129.38 83.7296C145.26 80.3996 161.69 76.9596 170.83 86.1896C176.28 91.6896 180.19 104.21 175.91 118.67C175.18 121.16 174 124.13 172.49 126.96C171.48 123.7 169.89 120.65 166.74 118.65C162.78 116.13 156.73 115.74 151.33 117.67C147.2 119.13 144.26 121.7 143.27 124.7C142.25 127.75 143.09 131.42 145.62 135.05C148.32 138.92 153.72 143.52 160.04 143.72C163.57 143.83 166.74 142.5 169.5 140.35C170.67 143.91 172.57 147.28 176.3 149.65C179.05 151.41 182.33 152.3 186.05 152.3ZM258.07 59.9096C253.87 64.1796 246.03 65.4996 240.58 62.8496C235.17 60.2196 231.19 53.3496 232.54 48.9896C233.73 45.1496 239.59 41.1996 247.12 39.1496C251.1 38.0696 255.76 37.4796 260.38 37.8296C260.46 38.3796 260.53 38.9196 260.61 39.4696C261.7 47.5396 262.74 55.1596 258.07 59.9096ZM111.48 39.4696C111.56 38.9196 111.63 38.3796 111.7 37.8296C116.33 37.4796 120.99 38.0696 124.97 39.1496C132.5 41.1996 138.36 45.1496 139.55 48.9896C140.9 53.3496 136.92 60.2196 131.51 62.8496C126.06 65.4996 118.22 64.1796 114.02 59.9096C109.35 55.1596 110.39 47.5396 111.48 39.4696ZM160.22 137.72C156.95 137.62 152.97 135.11 150.53 131.62C149.19 129.7 148.57 127.73 148.95 126.59C149.34 125.41 151.06 124.13 153.33 123.32C154.99 122.73 156.73 122.44 158.37 122.44C160.35 122.44 162.18 122.87 163.51 123.71C166.26 125.46 167.02 129.26 167.89 133.66C165.59 136.16 162.97 137.83 160.22 137.72ZM208.58 123.71C209.9 122.87 211.74 122.44 213.72 122.44C215.36 122.44 217.1 122.73 218.76 123.32C221.03 124.13 222.75 125.41 223.14 126.59C223.52 127.73 222.9 129.7 221.56 131.62C219.12 135.11 215.14 137.62 211.87 137.72C209.12 137.83 206.5 136.16 204.2 133.66C205.07 129.26 205.83 125.46 208.58 123.71Z" fill="#FF0000"/>
<path d="M186.04 210.64C182.32 210.64 179.04 211.53 176.29 213.29C172.56 215.66 170.66 219.03 169.49 222.59C166.73 220.44 163.56 219.11 160.03 219.22C153.71 219.42 148.31 224.02 145.61 227.89C143.08 231.52 142.24 235.19 143.26 238.24C144.25 241.24 147.19 243.81 151.32 245.27C156.72 247.2 162.77 246.81 166.73 244.29C169.88 242.29 171.47 239.24 172.48 235.98C173.99 238.81 175.17 241.78 175.9 244.27C180.18 258.73 176.27 271.25 170.82 276.75C161.68 285.98 145.25 282.54 129.37 279.21C112.87 275.76 97.28 272.49 88.4 282.5C79.38 292.68 81.57 313.46 92.75 323.68C96.63 327.23 101.35 329.33 106.27 330.37C106.76 335.75 106.47 340.56 103.42 343.87C99.67 347.93 92.25 349.15 81.37 347.49L80.46 353.43C93.44 355.4 102.64 353.56 107.83 347.94C112.15 343.26 112.78 337.33 112.35 331.14C117.35 331.38 122.29 330.73 126.54 329.58C136.27 326.94 143.45 321.63 145.28 315.73C147.52 308.5 142.31 298.67 134.14 294.7C126.29 290.88 115.8 292.66 109.74 298.82C103.08 305.61 104.33 315.36 105.5 324.02C102.31 323.08 99.31 321.55 96.8 319.25C88.12 311.32 86.07 294.17 92.89 286.49C99.46 279.08 113.39 282 128.14 285.09C144.78 288.57 163.65 292.52 175.08 280.97C179.69 276.32 182.56 269.62 183.38 261.59C184.02 255.36 183.39 248.42 181.66 242.56C180.37 238.21 177.89 232.39 174.34 227.65C175.2 223.79 176.38 220.35 179.52 218.35C181.29 217.22 183.48 216.64 186.04 216.64C188.6 216.64 190.79 217.22 192.56 218.35C195.7 220.35 196.88 223.79 197.74 227.65C194.19 232.39 191.71 238.21 190.42 242.56C188.69 248.42 188.06 255.36 188.7 261.59C189.52 269.62 192.39 276.32 197 280.97C208.43 292.52 227.3 288.57 243.94 285.09C258.69 282 272.62 279.08 279.19 286.49C286.01 294.17 283.96 311.32 275.28 319.25C272.77 321.55 269.77 323.08 266.58 324.02C267.75 315.36 269 305.61 262.34 298.82C256.28 292.66 245.79 290.88 237.94 294.7C229.77 298.67 224.56 308.5 226.8 315.73C228.63 321.63 235.81 326.94 245.54 329.58C249.79 330.73 254.73 331.38 259.73 331.14C259.3 337.33 259.93 343.26 264.25 347.94C269.44 353.56 278.64 355.4 291.62 353.43L290.71 347.49C279.83 349.15 272.41 347.93 268.66 343.87C265.61 340.56 265.32 335.75 265.81 330.37C270.73 329.33 275.45 327.23 279.33 323.68C290.51 313.46 292.7 292.68 283.68 282.5C274.8 272.49 259.21 275.76 242.71 279.21C226.83 282.54 210.4 285.98 201.26 276.75C195.81 271.25 191.89 258.73 196.18 244.27C196.91 241.78 198.09 238.81 199.6 235.98C200.6 239.24 202.2 242.29 205.35 244.29C209.31 246.81 215.36 247.2 220.76 245.27C224.89 243.81 227.83 241.24 228.82 238.24C229.83 235.19 229 231.52 226.47 227.89C223.77 224.02 218.37 219.42 212.05 219.22C208.52 219.11 205.35 220.44 202.59 222.59C201.42 219.03 199.52 215.66 195.79 213.29C193.04 211.53 189.76 210.64 186.04 210.64ZM260.61 323.47C260.53 324.02 260.46 324.56 260.38 325.11C255.76 325.46 251.1 324.87 247.12 323.79C239.59 321.74 233.73 317.79 232.54 313.95C231.19 309.59 235.17 302.72 240.58 300.09C246.03 297.44 253.87 298.76 258.07 303.03C262.74 307.78 261.7 315.4 260.61 323.47ZM114.02 303.03C118.22 298.76 126.06 297.44 131.51 300.09C136.92 302.72 140.9 309.59 139.55 313.95C138.36 317.79 132.5 321.74 124.97 323.79C120.99 324.87 116.33 325.46 111.7 325.11C111.63 324.56 111.56 324.02 111.48 323.47C110.39 315.4 109.35 307.78 114.02 303.03ZM167.89 229.28C167.02 233.68 166.26 237.48 163.51 239.23C162.18 240.07 160.35 240.5 158.37 240.5C156.73 240.5 154.99 240.21 153.33 239.62C151.06 238.81 149.34 237.53 148.95 236.35C148.57 235.21 149.19 233.24 150.53 231.32C152.97 227.83 156.95 225.32 160.22 225.22C162.97 225.11 165.59 226.78 167.89 229.28ZM204.2 229.28C206.5 226.78 209.12 225.11 211.87 225.22C215.14 225.32 219.12 227.83 221.56 231.32C222.9 233.24 223.52 235.21 223.14 236.35C222.75 237.53 221.03 238.81 218.76 239.62C217.1 240.21 215.36 240.5 213.72 240.5C211.74 240.5 209.9 240.07 208.58 239.23C205.83 237.48 205.07 233.68 204.2 229.28Z" fill="#FF0000"/>
<path d="M356.92 227.46C355.2 219.82 347.94 206.8 335 202.25C330.07 200.52 324.14 200.11 318.82 200.96C317.08 193.21 317.32 184.65 322.43 180.88C325.29 178.77 333.5 179.11 338.7 181.54C340.87 182.56 341.9 183.69 341.93 184.3L347.92 183.95C347.79 181.74 346.53 178.58 341.24 176.11C334.62 173 324.05 172.24 318.87 176.05C311.18 181.72 310.82 192.93 313.02 202.52C309.19 204.04 306.23 206.43 305.1 209.65C303.44 214.37 306.43 218.4 309.07 221.96C311.58 225.35 313.95 228.55 313.21 232.28C312.15 237.63 305.61 242.35 299.51 242.26C299.16 242.26 298.83 242.23 298.5 242.2C299.56 240.19 300.39 238.09 300.95 236.14C302.95 229.22 302.34 223.29 299.32 220.27C297.01 217.97 293.02 217.06 288.63 217.85C284.16 218.65 280.65 220.93 279.25 223.97C277.68 227.38 278.54 232.3 281.56 237.14C283.24 239.82 285.73 242.62 288.84 244.74C288.27 245.12 287.69 245.39 287.12 245.51C283.2 246.39 278.12 240.18 273.21 234.17C266.26 225.65 258.38 216.01 247.67 217.2C240.28 218.03 233.26 224.02 232.32 230.28C231.42 236.33 235.96 240.47 240.34 244.48C244.43 248.21 248.66 252.08 248.92 257.53C248.96 258.37 248.91 259.25 248.77 260.14C246.92 258.29 244.69 256.97 242.03 256.9C239.62 256.83 237.03 257.8 234.93 259.56C232.63 261.47 231.27 264.08 231.21 266.71C231.14 269.22 232.19 271.72 234.16 273.75C236.13 275.76 238.74 276.97 241.15 276.97H241.16C243.78 276.97 246.45 275.63 248.88 273.09C249 272.97 249.11 272.85 249.22 272.73C249.34 273.07 249.45 273.42 249.56 273.76C253.24 285.41 248.97 303.27 236.95 310.28C230.59 314 223.04 309.05 212.26 301.07C203.86 294.86 195.19 288.44 186.05 288.44C176.9 288.44 168.23 294.86 159.84 301.07C149.06 309.05 141.51 314 135.14 310.28C123.13 303.27 118.86 285.4 122.54 273.76C122.65 273.41 122.76 273.07 122.88 272.72C122.99 272.84 123.11 272.96 123.22 273.08C125.65 275.63 128.32 276.97 130.94 276.97H130.95C133.36 276.97 135.97 275.76 137.94 273.74C139.91 271.72 140.96 269.22 140.89 266.71C140.83 264.07 139.47 261.47 137.17 259.55C135.07 257.8 132.48 256.83 130.07 256.9C127.42 256.97 125.18 258.28 123.33 260.13C123.19 259.24 123.14 258.36 123.18 257.53C123.44 252.08 127.67 248.21 131.76 244.47C136.14 240.47 140.68 236.33 139.78 230.28C138.85 224.02 131.82 218.03 124.43 217.2C113.72 216 105.84 225.65 98.89 234.17C93.98 240.18 88.9 246.39 84.98 245.51C84.41 245.38 83.83 245.12 83.26 244.73C86.37 242.61 88.86 239.82 90.54 237.13C93.56 232.3 94.42 227.38 92.85 223.96C91.45 220.93 87.95 218.64 83.47 217.84C79.09 217.06 75.09 217.96 72.79 220.27C69.76 223.29 69.15 229.22 71.15 236.13C71.72 238.08 72.54 240.18 73.61 242.19C73.27 242.23 72.94 242.25 72.6 242.26C66.49 242.35 59.95 237.63 58.89 232.28C58.15 228.55 60.52 225.35 63.04 221.96C65.67 218.4 68.67 214.36 67.01 209.65C65.87 206.42 62.91 204.04 59.08 202.52C61.28 192.93 60.93 181.71 53.23 176.04C48.06 172.23 37.48 173 30.86 176.1C25.58 178.58 24.31 181.73 24.18 183.94L30.17 184.3C30.21 183.68 31.23 182.55 33.41 181.53C38.6 179.1 46.81 178.77 49.67 180.88C54.79 184.64 55.02 193.21 53.28 200.96C47.97 200.1 42.03 200.51 37.11 202.24C24.16 206.79 16.9 219.81 15.18 227.46C14.24 231.62 14.72 234.79 16.56 236.61C18.22 238.25 20.86 238.75 24.39 238.11C33.03 236.52 49.03 227.09 55.95 211.89C56.45 210.78 56.94 209.59 57.39 208.32C59.47 209.24 60.91 210.41 61.35 211.64C61.91 213.23 60.54 215.25 58.22 218.39C55.34 222.27 51.75 227.11 53.01 233.44C54.63 241.66 63.69 248.48 72.72 248.26C74.34 248.22 75.9 247.97 77.37 247.54C79.16 249.42 81.27 250.83 83.66 251.37C91.21 253.06 97.2 245.73 103.54 237.96C109.81 230.27 116.3 222.33 123.76 223.16C128.41 223.68 133.31 227.57 133.84 231.16C134.24 233.86 131.79 236.31 127.71 240.04C123.19 244.17 117.56 249.32 117.18 257.24C117.04 260.28 117.7 263.54 118.98 266.54C117.89 268.75 117.18 270.79 116.82 271.95C112.36 286.05 117.45 306.9 132.12 315.46C134.65 316.94 137.2 317.57 139.77 317.57C147.63 317.57 155.62 311.66 163.41 305.9C171.02 300.26 178.88 294.45 186.05 294.44C193.22 294.45 201.08 300.27 208.69 305.9C216.48 311.66 224.47 317.57 232.33 317.57C234.9 317.57 237.45 316.94 239.98 315.47C254.65 306.9 259.74 286.05 255.28 271.95C254.92 270.79 254.21 268.76 253.12 266.55C254.4 263.55 255.06 260.29 254.92 257.24C254.54 249.32 248.91 244.18 244.39 240.05C240.31 236.32 237.86 233.86 238.26 231.16C238.79 227.57 243.69 223.69 248.34 223.16C255.8 222.33 262.29 230.28 268.56 237.96C274.9 245.73 280.89 253.06 288.44 251.37C290.83 250.83 292.94 249.42 294.73 247.55C296.2 247.97 297.76 248.23 299.38 248.26C308.41 248.48 317.47 241.67 319.1 233.45C320.35 227.12 316.77 222.28 313.89 218.39C311.56 215.26 310.2 213.24 310.76 211.64C311.19 210.41 312.64 209.24 314.71 208.33C315.16 209.59 315.65 210.79 316.15 211.89C323.08 227.1 339.08 236.53 347.71 238.11C351.25 238.76 353.88 238.26 355.54 236.62C357.38 234.8 357.86 231.63 356.92 227.46ZM244.54 268.94C243.33 270.21 242.06 270.97 241.16 270.97C240.5 270.97 239.41 270.54 238.46 269.56C237.64 268.72 237.18 267.73 237.2 266.86C237.23 265.96 237.8 264.97 238.77 264.17C239.72 263.37 240.92 262.88 241.87 262.9C243.34 262.94 244.92 264.44 246.32 266.63C245.79 267.48 245.19 268.26 244.54 268.94ZM130.22 262.9C131.17 262.87 132.37 263.37 133.33 264.16C134.29 264.97 134.86 265.95 134.89 266.86C134.91 267.73 134.45 268.71 133.63 269.56C132.68 270.53 131.59 270.97 130.93 270.97C130.03 270.97 128.76 270.21 127.55 268.94C126.9 268.26 126.3 267.48 125.77 266.63C127.17 264.44 128.75 262.93 130.22 262.9ZM50.48 209.4C45.45 220.44 34.4 228.54 26.26 231.39C23.1 232.5 21.37 232.45 20.81 232.31C20.63 231.69 20.49 229.57 21.97 225.69C24.38 219.41 30.3 210.99 39.08 207.9C43.25 206.44 47.72 206.22 51.56 206.76C51.22 207.68 50.86 208.57 50.48 209.4ZM79.31 240.16C78.35 238.5 77.51 236.55 76.9 234.46C75.47 229.5 75.89 225.64 77.01 224.51C77.53 224 78.75 223.57 80.42 223.57C81.03 223.57 81.69 223.62 82.41 223.75C85.07 224.23 86.93 225.48 87.39 226.48C87.97 227.72 87.48 230.69 85.44 233.95C84.04 236.19 81.93 238.53 79.31 240.16ZM295.19 234.47C294.58 236.55 293.75 238.5 292.78 240.16C290.17 238.54 288.05 236.2 286.65 233.95C284.61 230.69 284.13 227.73 284.7 226.48C285.16 225.49 287.02 224.23 289.69 223.75C290.4 223.63 291.07 223.57 291.67 223.57C293.35 223.57 294.56 224 295.08 224.52C296.2 225.64 296.62 229.51 295.19 234.47ZM351.29 232.31C350.72 232.46 348.99 232.51 345.83 231.4C337.69 228.54 326.64 220.44 321.61 209.41C321.23 208.57 320.87 207.69 320.53 206.76C324.37 206.23 328.85 206.45 333.01 207.91C341.79 211 347.72 219.42 350.12 225.69C351.61 229.58 351.46 231.7 351.29 232.31Z" fill="#FF0000"/>
<path d="M248.29 189.87C241.37 188.13 233.62 189.39 227.7 193.06C225.71 188.18 225.48 183.4 225.48 181.48C225.48 179.56 225.71 174.78 227.7 169.9C233.62 173.57 241.37 174.83 248.29 173.09C255.93 171.17 265.73 164.58 264.36 158.2C264.08 156.88 263.17 154.98 260.44 153.39C255.28 150.38 246 149.79 238.85 152.02C235.67 153.02 232.65 154.62 230.13 156.67C228.65 157.86 227.38 159.16 226.29 160.53C225.49 159.37 224.95 158.2 224.38 157C223.16 154.37 221.77 151.4 217.8 149.58C211.41 146.66 201.8 148.04 197.67 154.75C196.53 156.59 195.84 158.82 195.63 161.12C195.49 161.33 195.35 161.53 195.21 161.73C193.86 163.7 192.57 165.57 190.1 166.57C188.86 167.08 187.5 167.34 186.05 167.35H186.02C184.57 167.34 183.21 167.08 181.97 166.57C179.5 165.57 178.21 163.7 176.86 161.73C176.72 161.53 176.58 161.33 176.44 161.12C176.23 158.82 175.54 156.59 174.4 154.75C170.27 148.04 160.66 146.66 154.27 149.58C150.3 151.4 148.91 154.37 147.69 157C147.12 158.2 146.58 159.37 145.78 160.53C144.69 159.16 143.42 157.86 141.94 156.67C139.42 154.62 136.4 153.02 133.22 152.02C126.07 149.79 116.79 150.38 111.63 153.39C108.9 154.98 107.99 156.88 107.71 158.2C106.34 164.58 116.14 171.17 123.78 173.09C130.7 174.83 138.45 173.57 144.37 169.9C146.36 174.78 146.59 179.56 146.59 181.48C146.59 183.4 146.36 188.18 144.37 193.06C138.45 189.39 130.7 188.13 123.78 189.87C116.14 191.79 106.34 198.38 107.71 204.76C107.99 206.08 108.9 207.98 111.63 209.57C116.79 212.58 126.07 213.17 133.22 210.94C136.4 209.94 139.42 208.34 141.94 206.29C143.42 205.1 144.69 203.8 145.78 202.43C146.58 203.59 147.12 204.76 147.69 205.96C148.91 208.59 150.3 211.56 154.27 213.38C160.66 216.3 170.27 214.92 174.4 208.21C175.54 206.37 176.23 204.14 176.44 201.84C176.58 201.63 176.72 201.43 176.86 201.23C178.21 199.26 179.5 197.39 181.97 196.39C183.21 195.88 184.57 195.62 186.02 195.61H186.05C187.5 195.61 188.86 195.88 190.1 196.39C192.57 197.39 193.86 199.26 195.21 201.23C195.35 201.43 195.49 201.63 195.63 201.84C195.84 204.14 196.53 206.37 197.67 208.21C201.8 214.92 211.41 216.3 217.8 213.38C221.77 211.56 223.16 208.59 224.38 205.96C224.95 204.76 225.49 203.59 226.29 202.43C227.38 203.8 228.65 205.1 230.13 206.29C232.65 208.34 235.67 209.94 238.85 210.94C246 213.17 255.28 212.58 260.44 209.57C263.17 207.98 264.08 206.08 264.36 204.76C265.73 198.38 255.93 191.79 248.29 189.87ZM233.9 161.33C235.26 160.23 237.52 158.72 240.64 157.75C243.19 156.95 245.78 156.64 248.17 156.64C253.6 156.64 258.01 158.25 258.5 159.49C258.52 160.85 253.51 165.6 246.83 167.27C241.36 168.65 235.23 167.63 230.66 164.68C231.57 163.48 232.64 162.35 233.9 161.33ZM125.24 167.27C118.56 165.6 113.55 160.84 113.57 159.49C114.06 158.25 118.47 156.64 123.9 156.64C126.29 156.64 128.88 156.95 131.43 157.75C134.55 158.72 136.81 160.23 138.17 161.33C139.42 162.35 140.5 163.48 141.41 164.68C136.84 167.63 130.71 168.65 125.24 167.27ZM138.17 201.63C136.81 202.73 134.55 204.24 131.43 205.21C128.88 206.01 126.29 206.32 123.9 206.32C118.47 206.32 114.06 204.71 113.57 203.47C113.55 202.12 118.56 197.36 125.24 195.69C130.71 194.31 136.84 195.33 141.41 198.28C140.5 199.48 139.42 200.61 138.17 201.63ZM202.8 162.43C202.93 162.43 203.06 162.43 203.19 162.43C206.18 162.43 209.18 164.64 209.34 165.59C209.29 165.72 208.71 166.53 207.32 167.21C205.96 167.89 204.47 168.09 203.62 167.72C202.94 167.43 202.34 166.58 201.97 165.38C201.75 164.7 201.63 163.96 201.58 163.21C202.03 162.71 202.4 162.47 202.8 162.44V162.43ZM169.27 162.43C169.67 162.46 170.04 162.7 170.49 163.2C170.44 163.95 170.32 164.69 170.1 165.37C169.73 166.57 169.13 167.42 168.45 167.71C167.6 168.08 166.11 167.88 164.75 167.2C163.36 166.52 162.78 165.71 162.73 165.58C162.89 164.63 165.89 162.42 168.88 162.42C169.01 162.42 169.14 162.42 169.27 162.42V162.43ZM169.27 200.53C169.14 200.53 169.01 200.54 168.88 200.54C165.89 200.54 162.89 198.33 162.73 197.38C162.78 197.25 163.36 196.44 164.75 195.76C166.11 195.08 167.6 194.88 168.45 195.25C169.13 195.54 169.73 196.39 170.1 197.59C170.32 198.27 170.44 199.01 170.49 199.76C170.04 200.26 169.67 200.5 169.27 200.53ZM202.8 200.53C202.4 200.5 202.03 200.26 201.58 199.76C201.63 199.01 201.75 198.27 201.97 197.59C202.34 196.39 202.94 195.54 203.62 195.25C204.47 194.88 205.96 195.08 207.32 195.76C208.71 196.44 209.29 197.25 209.34 197.38C209.18 198.33 206.18 200.54 203.19 200.54C203.06 200.54 202.93 200.53 202.8 200.53ZM222.92 197.03C220.87 199.31 219.82 201.55 218.95 203.43C217.78 205.92 217.19 207.06 215.31 207.92C211.98 209.45 206.86 209.03 204 206.51C207.25 206.28 210.69 204.78 212.95 202.53C214.63 200.85 215.45 198.95 215.33 197.05C215.18 194.75 213.61 192.53 211.01 190.94C208.49 189.41 204.6 188.28 201.23 189.75C199.46 190.52 198 191.96 197.01 193.9C196.27 193.18 195.42 192.48 194.42 191.87C194.42 191.87 193.45 191.28 192.35 190.83C188.77 189.38 183.3 189.38 179.72 190.83C178.62 191.28 177.65 191.87 177.64 191.87C176.64 192.48 175.79 193.17 175.06 193.9C174.07 191.96 172.61 190.52 170.84 189.75C167.47 188.28 163.58 189.41 161.06 190.94C158.46 192.53 156.89 194.75 156.74 197.05C156.62 198.95 157.44 200.85 159.12 202.53C161.38 204.78 164.82 206.28 168.07 206.51C165.21 209.03 160.09 209.45 156.76 207.92C154.88 207.06 154.29 205.92 153.12 203.43C152.25 201.55 151.2 199.31 149.15 197.03C152.25 190.56 152.59 184 152.59 181.48C152.59 178.96 152.25 172.4 149.15 165.93C151.2 163.65 152.25 161.41 153.12 159.53C154.29 157.04 154.88 155.9 156.76 155.04C160.09 153.51 165.21 153.93 168.07 156.45C164.82 156.68 161.38 158.18 159.12 160.43C157.44 162.11 156.62 164.01 156.74 165.91C156.89 168.21 158.46 170.43 161.06 172.02C163.58 173.55 167.47 174.68 170.84 173.21C172.61 172.44 174.07 171 175.06 169.06C175.8 169.78 176.65 170.48 177.64 171.09C177.64 171.09 178.61 171.68 179.72 172.13C183.3 173.58 188.77 173.58 192.35 172.13C193.45 171.68 194.42 171.09 194.42 171.09C195.42 170.48 196.27 169.78 197.01 169.06C198 171 199.46 172.44 201.23 173.21C204.6 174.68 208.49 173.55 211.01 172.02C213.61 170.43 215.18 168.21 215.33 165.91C215.45 164.01 214.63 162.11 212.95 160.43C210.69 158.18 207.25 156.68 204 156.45C206.86 153.93 211.98 153.51 215.31 155.04C217.19 155.9 217.78 157.04 218.95 159.53C219.82 161.41 220.87 163.65 222.92 165.93C219.82 172.4 219.48 178.96 219.48 181.48C219.48 184 219.82 190.56 222.92 197.03ZM248.17 206.32C245.78 206.32 243.19 206.01 240.64 205.21C237.52 204.24 235.26 202.73 233.9 201.63C232.64 200.61 231.57 199.48 230.66 198.28C235.23 195.33 241.36 194.31 246.83 195.69C253.51 197.36 258.52 202.11 258.5 203.47C258.01 204.71 253.6 206.32 248.17 206.32Z" fill="#FF0000"/>
</svg>
