<svg width="373" height="363" viewBox="0 0 373 363" fill="none" xmlns="http://www.w3.org/2000/svg">
<g clip-path="url(#clip0_121_1122)">
<path d="M189.01 362.99H183.06C181.46 346.32 169.79 260.84 97.22 215.07C63.27 193.65 28.5 188.84 5.32 188.58L0 188.52L2.82 184.03C29.39 141.7 58.62 126.69 78.47 121.55C89.09 118.8 101.72 117.43 119.11 117.16C119.11 86.16 125.95 56.98 138.35 34.98C151.07 12.42 168.16 0 186.49 0C204.82 0 221.91 12.42 234.63 34.97C247.04 56.98 253.87 86.17 253.87 117.17C270.62 117.48 283.3 118.88 293.6 121.55C313.44 126.69 342.68 141.7 369.25 184.03L372.07 188.52L366.75 188.58C343.56 188.84 308.8 193.65 274.84 215.07C202.27 260.84 190.6 346.32 189 362.99H189.01Z" fill="#540A0B"/>
<path d="M186.05 152.31C189.77 152.31 193.05 151.42 195.8 149.66C199.53 147.29 201.43 143.92 202.6 140.36C205.36 142.51 208.53 143.84 212.06 143.73C218.38 143.53 223.78 138.93 226.48 135.06C229.01 131.43 229.84 127.76 228.83 124.71C227.84 121.71 224.9 119.14 220.77 117.68C215.37 115.75 209.32 116.14 205.36 118.66C202.21 120.66 200.61 123.71 199.61 126.97C198.1 124.14 196.92 121.17 196.19 118.68C191.9 104.22 195.82 91.7003 201.27 86.2003C210.41 76.9703 226.84 80.4103 242.72 83.7403C259.22 87.1903 274.81 90.4603 283.69 80.4503C292.71 70.2703 290.52 49.4903 279.34 39.2703C275.46 35.7203 270.74 33.6203 265.82 32.5803C265.33 27.2003 265.62 22.3903 268.67 19.0803C272.42 15.0203 279.84 13.8003 290.72 15.4603L291.63 9.52034C278.65 7.55034 269.45 9.39034 264.26 15.0103C259.94 19.6903 259.31 25.6203 259.74 31.8103C254.74 31.5703 249.8 32.2203 245.55 33.3703C235.82 36.0103 228.64 41.3203 226.81 47.2203C224.57 54.4503 229.78 64.2803 237.95 68.2503C245.8 72.0703 256.29 70.2903 262.35 64.1303C269.01 57.3403 267.76 47.5903 266.59 38.9303C269.78 39.8703 272.78 41.4003 275.29 43.7003C283.97 51.6303 286.02 68.7803 279.2 76.4603C272.63 83.8703 258.7 80.9503 243.95 77.8603C227.31 74.3803 208.44 70.4303 197.01 81.9803C192.4 86.6303 189.53 93.3303 188.71 101.36C188.07 107.59 188.7 114.53 190.43 120.39C191.72 124.74 194.2 130.56 197.75 135.3C196.89 139.16 195.71 142.6 192.57 144.6C190.8 145.73 188.61 146.31 186.05 146.31C183.49 146.31 181.3 145.73 179.53 144.6C176.39 142.6 175.21 139.16 174.35 135.3C177.9 130.56 180.38 124.74 181.67 120.39C183.4 114.53 184.03 107.59 183.39 101.36C182.57 93.3303 179.7 86.6303 175.09 81.9803C163.66 70.4303 144.79 74.3803 128.15 77.8603C113.4 80.9503 99.47 83.8703 92.9 76.4603C86.08 68.7803 88.13 51.6303 96.81 43.7003C99.32 41.4003 102.32 39.8703 105.51 38.9303C104.34 47.5903 103.09 57.3403 109.75 64.1303C115.81 70.2903 126.3 72.0703 134.15 68.2503C142.32 64.2803 147.53 54.4503 145.29 47.2203C143.46 41.3203 136.28 36.0103 126.55 33.3703C122.3 32.2203 117.36 31.5703 112.36 31.8103C112.79 25.6203 112.16 19.6903 107.84 15.0103C102.65 9.39034 93.45 7.55034 80.47 9.52034L81.38 15.4603C92.26 13.8003 99.68 15.0203 103.43 19.0803C106.48 22.3903 106.77 27.2003 106.28 32.5803C101.36 33.6203 96.64 35.7203 92.76 39.2703C81.58 49.4903 79.39 70.2703 88.41 80.4503C97.29 90.4603 112.88 87.1903 129.38 83.7403C145.26 80.4103 161.69 76.9703 170.83 86.2003C176.28 91.7003 180.19 104.22 175.91 118.68C175.18 121.17 174 124.14 172.49 126.97C171.48 123.71 169.89 120.66 166.74 118.66C162.78 116.14 156.73 115.75 151.33 117.68C147.2 119.14 144.26 121.71 143.27 124.71C142.25 127.76 143.09 131.43 145.62 135.06C148.32 138.93 153.72 143.53 160.04 143.73C163.57 143.84 166.74 142.51 169.5 140.36C170.67 143.92 172.57 147.29 176.3 149.66C179.05 151.42 182.33 152.31 186.05 152.31ZM258.07 59.9203C253.87 64.1903 246.03 65.5103 240.58 62.8603C235.17 60.2303 231.19 53.3603 232.54 49.0003C233.73 45.1603 239.59 41.2103 247.12 39.1603C251.1 38.0803 255.76 37.4903 260.38 37.8403C260.46 38.3903 260.53 38.9303 260.61 39.4803C261.7 47.5503 262.74 55.1703 258.07 59.9203ZM111.48 39.4803C111.56 38.9303 111.63 38.3903 111.7 37.8403C116.33 37.4903 120.99 38.0803 124.97 39.1603C132.5 41.2103 138.36 45.1603 139.55 49.0003C140.9 53.3603 136.92 60.2303 131.51 62.8603C126.06 65.5103 118.22 64.1903 114.02 59.9203C109.35 55.1703 110.39 47.5503 111.48 39.4803ZM160.22 137.73C156.95 137.63 152.97 135.12 150.53 131.63C149.19 129.71 148.57 127.74 148.95 126.6C149.34 125.42 151.06 124.14 153.33 123.33C154.99 122.74 156.73 122.45 158.37 122.45C160.35 122.45 162.18 122.88 163.51 123.72C166.26 125.47 167.02 129.27 167.89 133.67C165.59 136.17 162.97 137.84 160.22 137.73ZM208.58 123.72C209.9 122.88 211.74 122.45 213.72 122.45C215.36 122.45 217.1 122.74 218.76 123.33C221.03 124.14 222.75 125.42 223.14 126.6C223.52 127.74 222.9 129.71 221.56 131.63C219.12 135.12 215.14 137.63 211.87 137.73C209.12 137.84 206.5 136.17 204.2 133.67C205.07 129.27 205.83 125.47 208.58 123.72Z" fill="#FF0004"/>
<path d="M186.04 210.65C182.32 210.65 179.04 211.54 176.29 213.3C172.56 215.67 170.66 219.04 169.49 222.6C166.73 220.45 163.56 219.12 160.03 219.23C153.71 219.43 148.31 224.03 145.61 227.9C143.08 231.53 142.24 235.2 143.26 238.25C144.25 241.25 147.19 243.82 151.32 245.28C156.72 247.21 162.77 246.82 166.73 244.3C169.88 242.3 171.47 239.25 172.48 235.99C173.99 238.82 175.17 241.79 175.9 244.28C180.18 258.74 176.27 271.26 170.82 276.76C161.68 285.99 145.25 282.55 129.37 279.22C112.87 275.77 97.28 272.5 88.4 282.51C79.38 292.69 81.57 313.47 92.75 323.69C96.63 327.24 101.35 329.34 106.27 330.38C106.76 335.76 106.47 340.57 103.42 343.88C99.67 347.94 92.25 349.16 81.37 347.5L80.46 353.44C93.44 355.41 102.64 353.57 107.83 347.95C112.15 343.27 112.78 337.34 112.35 331.15C117.35 331.39 122.29 330.74 126.54 329.59C136.27 326.95 143.45 321.64 145.28 315.74C147.52 308.51 142.31 298.68 134.14 294.71C126.29 290.89 115.8 292.67 109.74 298.83C103.08 305.62 104.33 315.37 105.5 324.03C102.31 323.09 99.31 321.56 96.8 319.26C88.12 311.33 86.07 294.18 92.89 286.5C99.46 279.09 113.39 282.01 128.14 285.1C144.78 288.58 163.65 292.53 175.08 280.98C179.69 276.33 182.56 269.63 183.38 261.6C184.02 255.37 183.39 248.43 181.66 242.57C180.37 238.22 177.89 232.4 174.34 227.66C175.2 223.8 176.38 220.36 179.52 218.36C181.29 217.23 183.48 216.65 186.04 216.65C188.6 216.65 190.79 217.23 192.56 218.36C195.7 220.36 196.88 223.8 197.74 227.66C194.19 232.4 191.71 238.22 190.42 242.57C188.69 248.43 188.06 255.37 188.7 261.6C189.52 269.63 192.39 276.33 197 280.98C208.43 292.53 227.3 288.58 243.94 285.1C258.69 282.01 272.62 279.09 279.19 286.5C286.01 294.18 283.96 311.33 275.28 319.26C272.77 321.56 269.77 323.09 266.58 324.03C267.75 315.37 269 305.62 262.34 298.83C256.28 292.67 245.79 290.89 237.94 294.71C229.77 298.68 224.56 308.51 226.8 315.74C228.63 321.64 235.81 326.95 245.54 329.59C249.79 330.74 254.73 331.39 259.73 331.15C259.3 337.34 259.93 343.27 264.25 347.95C269.44 353.57 278.64 355.41 291.62 353.44L290.71 347.5C279.83 349.16 272.41 347.94 268.66 343.88C265.61 340.57 265.32 335.76 265.81 330.38C270.73 329.34 275.45 327.24 279.33 323.69C290.51 313.47 292.7 292.69 283.68 282.51C274.8 272.5 259.21 275.77 242.71 279.22C226.83 282.55 210.4 285.99 201.26 276.76C195.81 271.26 191.89 258.74 196.18 244.28C196.91 241.79 198.09 238.82 199.6 235.99C200.6 239.25 202.2 242.3 205.35 244.3C209.31 246.82 215.36 247.21 220.76 245.28C224.89 243.82 227.83 241.25 228.82 238.25C229.83 235.2 229 231.53 226.47 227.9C223.77 224.03 218.37 219.43 212.05 219.23C208.52 219.12 205.35 220.45 202.59 222.6C201.42 219.04 199.52 215.67 195.79 213.3C193.04 211.54 189.76 210.65 186.04 210.65ZM260.61 323.48C260.53 324.03 260.46 324.57 260.38 325.12C255.76 325.47 251.1 324.88 247.12 323.8C239.59 321.75 233.73 317.8 232.54 313.96C231.19 309.6 235.17 302.73 240.58 300.1C246.03 297.45 253.87 298.77 258.07 303.04C262.74 307.79 261.7 315.41 260.61 323.48ZM114.02 303.04C118.22 298.77 126.06 297.45 131.51 300.1C136.92 302.73 140.9 309.6 139.55 313.96C138.36 317.8 132.5 321.75 124.97 323.8C120.99 324.88 116.33 325.47 111.7 325.12C111.63 324.57 111.56 324.03 111.48 323.48C110.39 315.41 109.35 307.79 114.02 303.04ZM167.89 229.29C167.02 233.69 166.26 237.49 163.51 239.24C162.18 240.08 160.35 240.51 158.37 240.51C156.73 240.51 154.99 240.22 153.33 239.63C151.06 238.82 149.34 237.54 148.95 236.36C148.57 235.22 149.19 233.25 150.53 231.33C152.97 227.84 156.95 225.33 160.22 225.23C162.97 225.12 165.59 226.79 167.89 229.29ZM204.2 229.29C206.5 226.79 209.12 225.12 211.87 225.23C215.14 225.33 219.12 227.84 221.56 231.33C222.9 233.25 223.52 235.22 223.14 236.36C222.75 237.54 221.03 238.82 218.76 239.63C217.1 240.22 215.36 240.51 213.72 240.51C211.74 240.51 209.9 240.08 208.58 239.24C205.83 237.49 205.07 233.69 204.2 229.29Z" fill="#FF0004"/>
<path d="M248.3 189.89C241.38 188.15 233.63 189.41 227.71 193.08C225.72 188.2 225.49 183.42 225.49 181.5C225.49 179.58 225.72 174.8 227.71 169.92C233.63 173.59 241.38 174.85 248.3 173.11C255.94 171.19 265.74 164.6 264.37 158.22C264.09 156.9 263.18 155 260.45 153.41C255.29 150.4 246.01 149.81 238.86 152.04C235.68 153.04 232.66 154.64 230.14 156.69C228.66 157.88 227.39 159.18 226.3 160.55C225.5 159.39 224.96 158.22 224.39 157.02C223.17 154.39 221.78 151.42 217.81 149.6C211.42 146.68 201.81 148.06 197.68 154.77C196.54 156.61 195.85 158.84 195.64 161.14C195.5 161.35 195.36 161.55 195.22 161.75C193.87 163.72 192.58 165.59 190.11 166.59C188.87 167.1 187.51 167.36 186.06 167.37H186.03C184.58 167.36 183.22 167.1 181.98 166.59C179.51 165.59 178.22 163.72 176.87 161.75C176.73 161.55 176.59 161.35 176.45 161.14C176.24 158.84 175.55 156.61 174.41 154.77C170.28 148.06 160.67 146.68 154.28 149.6C150.31 151.42 148.92 154.39 147.7 157.02C147.13 158.22 146.59 159.39 145.79 160.55C144.7 159.18 143.43 157.88 141.95 156.69C139.43 154.64 136.41 153.04 133.23 152.04C126.08 149.81 116.8 150.4 111.64 153.41C108.91 155 108 156.9 107.72 158.22C106.35 164.6 116.15 171.19 123.79 173.11C130.71 174.85 138.46 173.59 144.38 169.92C146.37 174.8 146.6 179.58 146.6 181.5C146.6 183.42 146.37 188.2 144.38 193.08C138.46 189.41 130.71 188.15 123.79 189.89C116.15 191.81 106.35 198.4 107.72 204.78C108 206.1 108.91 208 111.64 209.59C116.8 212.6 126.08 213.19 133.23 210.96C136.41 209.96 139.43 208.36 141.95 206.31C143.43 205.12 144.7 203.82 145.79 202.45C146.59 203.61 147.13 204.78 147.7 205.98C148.92 208.61 150.31 211.579 154.28 213.399C160.67 216.319 170.28 214.94 174.41 208.23C175.55 206.39 176.24 204.16 176.45 201.86C176.59 201.65 176.73 201.45 176.87 201.25C178.22 199.28 179.51 197.41 181.98 196.41C183.22 195.9 184.58 195.64 186.03 195.63H186.06C187.51 195.63 188.87 195.9 190.11 196.41C192.58 197.41 193.87 199.28 195.22 201.25C195.36 201.45 195.5 201.65 195.64 201.86C195.85 204.16 196.54 206.39 197.68 208.23C201.81 214.94 211.42 216.319 217.81 213.399C221.78 211.579 223.17 208.61 224.39 205.98C224.96 204.78 225.5 203.61 226.3 202.45C227.39 203.82 228.66 205.12 230.14 206.31C232.66 208.36 235.68 209.96 238.86 210.96C246.01 213.19 255.29 212.6 260.45 209.59C263.18 208 264.09 206.1 264.37 204.78C265.74 198.4 255.94 191.81 248.3 189.89ZM233.91 161.35C235.27 160.25 237.53 158.74 240.65 157.77C243.2 156.97 245.79 156.66 248.18 156.66C253.61 156.66 258.02 158.27 258.51 159.51C258.53 160.87 253.52 165.62 246.84 167.29C241.37 168.67 235.24 167.65 230.67 164.7C231.58 163.5 232.65 162.37 233.91 161.35ZM125.25 167.29C118.57 165.62 113.56 160.86 113.58 159.51C114.07 158.27 118.48 156.66 123.91 156.66C126.3 156.66 128.89 156.97 131.44 157.77C134.56 158.74 136.82 160.25 138.18 161.35C139.43 162.37 140.51 163.5 141.42 164.7C136.85 167.65 130.72 168.67 125.25 167.29ZM138.18 201.65C136.82 202.75 134.56 204.26 131.44 205.23C128.89 206.03 126.3 206.34 123.91 206.34C118.48 206.34 114.07 204.73 113.58 203.49C113.56 202.14 118.57 197.38 125.25 195.71C130.72 194.33 136.85 195.35 141.42 198.3C140.51 199.5 139.43 200.63 138.18 201.65ZM202.81 162.45C202.94 162.45 203.07 162.45 203.2 162.45C206.19 162.45 209.19 164.66 209.35 165.61C209.3 165.74 208.72 166.55 207.33 167.23C205.97 167.91 204.48 168.11 203.63 167.74C202.95 167.45 202.35 166.6 201.98 165.4C201.76 164.72 201.64 163.98 201.59 163.23C202.04 162.73 202.41 162.49 202.81 162.46V162.45ZM169.28 162.45C169.68 162.48 170.05 162.72 170.5 163.22C170.45 163.97 170.33 164.71 170.11 165.39C169.74 166.59 169.14 167.44 168.46 167.73C167.61 168.1 166.12 167.9 164.76 167.22C163.37 166.54 162.79 165.73 162.74 165.6C162.9 164.65 165.9 162.44 168.89 162.44C169.02 162.44 169.15 162.44 169.28 162.44V162.45ZM169.28 200.55C169.15 200.55 169.02 200.56 168.89 200.56C165.9 200.56 162.9 198.35 162.74 197.4C162.79 197.27 163.37 196.46 164.76 195.78C166.12 195.1 167.61 194.9 168.46 195.27C169.14 195.56 169.74 196.41 170.11 197.61C170.33 198.29 170.45 199.03 170.5 199.78C170.05 200.28 169.68 200.52 169.28 200.55ZM202.81 200.55C202.41 200.52 202.04 200.28 201.59 199.78C201.64 199.03 201.76 198.29 201.98 197.61C202.35 196.41 202.95 195.56 203.63 195.27C204.48 194.9 205.97 195.1 207.33 195.78C208.72 196.46 209.3 197.27 209.35 197.4C209.19 198.35 206.19 200.56 203.2 200.56C203.07 200.56 202.94 200.55 202.81 200.55ZM222.93 197.05C220.88 199.33 219.83 201.57 218.96 203.45C217.79 205.94 217.2 207.08 215.32 207.94C211.99 209.47 206.87 209.05 204.01 206.53C207.26 206.3 210.7 204.8 212.96 202.55C214.64 200.87 215.46 198.97 215.34 197.07C215.19 194.77 213.62 192.55 211.02 190.96C208.5 189.43 204.61 188.3 201.24 189.77C199.47 190.54 198.01 191.98 197.02 193.92C196.28 193.2 195.43 192.5 194.43 191.89C194.43 191.89 193.46 191.3 192.36 190.85C188.78 189.4 183.31 189.4 179.73 190.85C178.63 191.3 177.66 191.89 177.65 191.89C176.65 192.5 175.8 193.19 175.07 193.92C174.08 191.98 172.62 190.54 170.85 189.77C167.48 188.3 163.59 189.43 161.07 190.96C158.47 192.55 156.9 194.77 156.75 197.07C156.63 198.97 157.45 200.87 159.13 202.55C161.39 204.8 164.83 206.3 168.08 206.53C165.22 209.05 160.1 209.47 156.77 207.94C154.89 207.08 154.3 205.94 153.13 203.45C152.26 201.57 151.21 199.33 149.16 197.05C152.26 190.58 152.6 184.02 152.6 181.5C152.6 178.98 152.26 172.42 149.16 165.95C151.21 163.67 152.26 161.43 153.13 159.55C154.3 157.06 154.89 155.92 156.77 155.06C160.1 153.53 165.22 153.95 168.08 156.47C164.83 156.7 161.39 158.2 159.13 160.45C157.45 162.13 156.63 164.03 156.75 165.93C156.9 168.229 158.47 170.45 161.07 172.04C163.59 173.57 167.48 174.7 170.85 173.23C172.62 172.46 174.08 171.02 175.07 169.08C175.81 169.8 176.66 170.5 177.65 171.11C177.65 171.11 178.62 171.7 179.73 172.15C183.31 173.6 188.78 173.6 192.36 172.15C193.46 171.7 194.43 171.11 194.43 171.11C195.43 170.5 196.28 169.8 197.02 169.08C198.01 171.02 199.47 172.46 201.24 173.23C204.61 174.7 208.5 173.57 211.02 172.04C213.62 170.45 215.19 168.229 215.34 165.93C215.46 164.03 214.64 162.13 212.96 160.45C210.7 158.2 207.26 156.7 204.01 156.47C206.87 153.95 211.99 153.53 215.32 155.06C217.2 155.92 217.79 157.06 218.96 159.55C219.83 161.43 220.88 163.67 222.93 165.95C219.83 172.42 219.49 178.98 219.49 181.5C219.49 184.02 219.83 190.58 222.93 197.05ZM248.18 206.34C245.79 206.34 243.2 206.03 240.65 205.23C237.53 204.26 235.27 202.75 233.91 201.65C232.65 200.63 231.58 199.5 230.67 198.3C235.24 195.35 241.37 194.33 246.84 195.71C253.52 197.38 258.53 202.13 258.51 203.49C258.02 204.73 253.61 206.34 248.18 206.34Z" fill="#FF0004"/>
</g>
<defs>
<clipPath id="clip0_121_1122">
<rect width="372.07" height="362.99" fill="white"/>
</clipPath>
</defs>
</svg>
